<svg width="24" height="24" viewBox="0 0 24 24" xmlns="http://www.w3.org/2000/svg">
<path d="M5.46967 18.248C5.17678 18.5409 5.17678 19.0158 5.46967 19.3087C5.76256 19.6015 6.23744 19.6015 6.53033 19.3087L5.46967 18.248ZM19.3085 6.53049C19.6014 6.2376 19.6014 5.76272 19.3085 5.46983C19.0156 5.17694 18.5407 5.17694 18.2478 5.46983L19.3085 6.53049ZM6.53033 19.3087L19.3085 6.53049L18.2478 5.46983L5.46967 18.248L6.53033 19.3087Z" />
<path d="M6.53033 5.46967C6.23744 5.17678 5.76256 5.17678 5.46967 5.46967C5.17678 5.76256 5.17678 6.23744 5.46967 6.53033L6.53033 5.46967ZM18.2478 19.3085C18.5407 19.6014 19.0156 19.6014 19.3085 19.3085C19.6014 19.0156 19.6014 18.5407 19.3085 18.2478L18.2478 19.3085ZM5.46967 6.53033L18.2478 19.3085L19.3085 18.2478L6.53033 5.46967L5.46967 6.53033Z" />
</svg>
