<svg id="Слой_1" data-name="Слой 1" xmlns="http://www.w3.org/2000/svg" viewBox="0 0 297.16 413.09"><defs><style>.cls-1{fill:none}.cls-2{fill:#218ece}</style></defs><path class="cls-1" d="M90.61 400.22a8.12 8.12 0 00-4.32-1.16H83.8c-.83 0-1.55 0-2.15.08v7c0 .68 0 1.29-.06 1.84a10.76 10.76 0 01-.17 1.39c.49 0 1.07.05 1.75.05h3.27a7.11 7.11 0 004.5-1.28 4.65 4.65 0 001.61-3.87 4.28 4.28 0 00-1.94-4.05zM60.8 389.52a6 6 0 00-1.8-2.74 4.84 4.84 0 00-3.17-1 6.69 6.69 0 00-4.92 1.9 10.09 10.09 0 00-2.55 5.74h13.03a12.11 12.11 0 00-.59-3.9zM165.39 267.83a6.25 6.25 0 011.44-1.92 18.58 18.58 0 012.74-2.12 60.92 60.92 0 016-3.39c2-1 4.09-2 6.14-3l6.18-2.83 6.15-2.81c1-.48 2.09-.95 3-1.43a20 20 0 002.74-1.57 30.13 30.13 0 008.7-9.3 50.27 50.27 0 007-25.05c0-1.1 0-2.19-.13-3.27 0-.55-.1-1.09-.18-1.63s-.16-1.18-.21-1.75a43.68 43.68 0 01.13-7 58.79 58.79 0 012.17-11.56c-.47.44-.94.89-1.4 1.36a108.4 108.4 0 01-.84 7.58 87.88 87.88 0 01-2.86 12.86 67.93 67.93 0 01-5 12.2 61.8 61.8 0 01-7.4 11 60.87 60.87 0 01-9.69 9 70.71 70.71 0 01-23.68 11.36c-2.12.55-4.26 1-6.41 1.39a14.31 14.31 0 00-4.82 6.06 5.26 5.26 0 00-.23.93c0 .32-.08.66-.09 1a6.46 6.46 0 00.16 1.92 3.23 3.23 0 002.46 2.44 15.67 15.67 0 004 .18c.67 0 1.35-.09 2-.17a7.72 7.72 0 001.94-.44zM122.67 390a8.46 8.46 0 00-2.38-3.08 5.29 5.29 0 00-3.56-1.11 5.91 5.91 0 00-4.33 1.64 9.59 9.59 0 00-2.44 4.22 19.42 19.42 0 00-.76 5.46 23.06 23.06 0 00.85 6.34 11.85 11.85 0 002.63 4.92 6 6 0 004.56 1.92 5.77 5.77 0 004.27-1.7 9.5 9.5 0 002.23-4.21 21 21 0 00.68-5.35 27.14 27.14 0 00-.42-4.78 17.64 17.64 0 00-1.33-4.27zM137.78 256a70.56 70.56 0 01-10.45-2.58c-2.11-.65-4.14-1.5-6.18-2.33l-3-1.39c-1-.47-2-1-2.93-1.53a65.21 65.21 0 01-10.9-7.48 58.66 58.66 0 01-9-9.71 67.34 67.34 0 01-11-23.91 102.1 102.1 0 01-2.6-16.61q-.61-.6-1.23-1.17a59.57 59.57 0 012.19 11.56 43.7 43.7 0 01.11 7c0 .57-.13 1.24-.2 1.75s-.14 1.08-.18 1.63c-.1 1.08-.13 2.17-.13 3.27a50.17 50.17 0 007 25.05 30.22 30.22 0 008.69 9.3 21.3 21.3 0 002.74 1.57c.94.48 2 .95 3 1.43l6.16 2.81 6.17 2.83c2 1 4.11 1.94 6.14 3a59.78 59.78 0 016 3.39 17.59 17.59 0 012.74 2.12 6.48 6.48 0 011.46 1.92 7.74 7.74 0 001.93.44c.67.08 1.34.14 2 .17a15.69 15.69 0 004-.18 3.26 3.26 0 002.46-2.44 6.81 6.81 0 00.16-1.92 8.14 8.14 0 00-.1-1 5.22 5.22 0 00-.22-.93 14.23 14.23 0 00-4.77-6z"/><path class="cls-1" d="M103.47 145.64a78.12 78.12 0 011.85 12c.36 4 .58 7.94 1 11.83.22 1.93.47 3.85.87 5.71a30.64 30.64 0 001.73 5.38 66.9 66.9 0 005.67 10.14c2.14 3.31 4.36 6.64 6.43 10.06 1 1.72 2 3.46 3 5.23s1.84 3.58 2.74 5.32c1.77 3.52 3.73 7 5.26 10.8a19.9 19.9 0 011.53 6.16 8.82 8.82 0 01-.44 3.42 7.54 7.54 0 01-1.22 2.18 6.37 6.37 0 01-.7.76 11.19 11.19 0 01-3.27 2.16c-.31.14-.61.26-.92.38-.5.19-1 .36-1.51.52a14.24 14.24 0 01-6.42.35 23.3 23.3 0 01-11-5.71 46 46 0 01-7.95-9.18 56.84 56.84 0 01-5.44-10.25l-.18-.43c-.7-1.71-1.21-3.53-1.78-5.2 0-.15-.1-.3-.16-.45a39.46 39.46 0 00-2.38-5.32 43 43 0 00-3.32-5.15A93.68 93.68 0 0088.7 206a66.27 66.27 0 007.15 17.74 50.77 50.77 0 003 4.52c.9 1.22 1.85 2.39 2.84 3.53a54.52 54.52 0 005.51 5.45 61.06 61.06 0 0010.15 7c.91.47 1.81 1 2.75 1.42l2.8 1.31c1.91.78 3.81 1.58 5.78 2.18a68.39 68.39 0 007.71 2c1.43.29 2.87.52 4.33.69a67.73 67.73 0 0012.33.39 59.28 59.28 0 008.18-1.08c1.34-.26 2.68-.57 4-.91a66.14 66.14 0 0022.27-10.54 56.19 56.19 0 008.21-7.43l.81-.92a55.51 55.51 0 005.18-7.16c.6-1 1.18-2 1.71-3a72.94 72.94 0 007.41-23.61c.07-.49.15-1 .2-1.49a44.23 44.23 0 00-3.49 5.42 38.37 38.37 0 00-2.4 5.32l-.16.45c-.56 1.67-1.07 3.49-1.78 5.2l-.16.39a56 56 0 01-5.46 10.29 45.94 45.94 0 01-7.94 9.18 23.39 23.39 0 01-10.95 5.71 14.24 14.24 0 01-6.42-.35c-.5-.16-1-.33-1.51-.51-.31-.13-.62-.25-.92-.39a11.11 11.11 0 01-3.28-2.16 5.57 5.57 0 01-.69-.76 7.54 7.54 0 01-1.22-2.18 9 9 0 01-.45-3.42 19.91 19.91 0 011.54-6.16c1.53-3.8 3.48-7.28 5.27-10.8.89-1.74 1.75-3.55 2.72-5.32s2-3.51 3-5.23c2.07-3.42 4.29-6.75 6.43-10.06a66.9 66.9 0 005.67-10.14 30.64 30.64 0 001.73-5.38c.39-1.86.66-3.78.87-5.71.41-3.89.63-7.85 1-11.83a80.64 80.64 0 011.85-12 30.42 30.42 0 015-11.12q.87-2.79 1.77-5.55a236.88 236.88 0 00-18.35-34.25q-5.7-8.89-11.95-17.41c-1.05-1.41-2.1-2.82-3.18-4.21L165.92 71l-.81-1-.82-1.12-1.63-2.26c-.53-.77-1-1.57-1.47-2.35s-1-1.56-1.39-2.38l-1.27-2.44A113.1 113.1 0 01151 39.09c-.78-2.76-1.45-5.56-2.06-8.37-.91 4.23-2 8.42-3.26 12.56-.61 2.09-1.35 4.14-2 6.19-.38 1-.79 2-1.18 3.05l-.68 1.48-.67 1.5a69.17 69.17 0 01-6.32 11.6l-2 2.72-2 2.49c-1.3 1.67-2.57 3.36-3.84 5.06q-3.76 5.1-7.34 10.35-7.12 10.51-13.28 21.61-3.08 5.55-5.81 11.25-2.06 4.22-3.88 8.53c.59 1.79 1.15 3.58 1.71 5.37a30.26 30.26 0 015.08 11.16zm51.62-3.86a29.84 29.84 0 008.84 5.62c.77.35 1.59.56 2.36.83s1.59.41 2.4.5a21.58 21.58 0 004.81.22 12.85 12.85 0 007.93-3.52c2.24-2 4.32-4.5 7.2-7.31l.86.22a11.46 11.46 0 01-.53 6.15 14.32 14.32 0 01-3.37 5.31 16.27 16.27 0 01-5.51 3.57 17.18 17.18 0 01-6.44 1.2 22.13 22.13 0 01-6.12-1 21.49 21.49 0 01-2.87-1.09A25.31 25.31 0 01162 151a22.22 22.22 0 01-4.46-3.89 19.41 19.41 0 01-3.2-4.83zm-5.86 44c4.12.17 8.19-1.44 11.88-4.15s7.06-6.2 10.48-9.84l.76.46a34.13 34.13 0 01-8.25 12.94 22.29 22.29 0 01-6.76 4.6 18.56 18.56 0 01-8.35 1.59 20.74 20.74 0 01-8.11-2.13 28 28 0 01-6.61-4.52 37.15 37.15 0 01-5.14-5.82 33 33 0 01-3.74-6.66l.75-.46a76.94 76.94 0 0011 9.37c3.79 2.58 7.95 4.46 12.09 4.6zm-40.76-48.48l.87-.17c1.16 1.54 2.24 3 3.31 4.31A36.91 36.91 0 00116 145a15.66 15.66 0 003.6 2.58 14.14 14.14 0 004.24 1.29 23.09 23.09 0 007.23-.34c.8-.21 1.61-.4 2.4-.69a30.29 30.29 0 009.18-5l.7.53a15.39 15.39 0 01-1.55 2.45c-.29.4-.6.76-.9 1.14s-.66.71-1 1.06a21.62 21.62 0 01-16.53 6.46c-.54 0-1.08-.11-1.61-.19l-.81-.11c-.27-.05-.53-.14-.8-.2l-1.59-.45c-.51-.21-1-.44-1.53-.67a14.74 14.74 0 01-5.17-4 15.67 15.67 0 01-2.91-5.51 13.37 13.37 0 01-.48-6.07zM216.08 341.49h1.19a6.06 6.06 0 004-1.33 5.18 5.18 0 001.61-4.22 5.69 5.69 0 00-1.55-4.27 5.84 5.84 0 00-4.22-1.5h-2.15c-.68 0-1.32.05-1.92.09v8c0 .68 0 1.3-.06 1.84s-.08 1-.11 1.39c.45 0 1 .06 1.55.06s1.13-.04 1.66-.06z"/><path class="cls-1" d="M53.75 224.94a80.23 80.23 0 007.19 13.18A102.09 102.09 0 0070.19 250a57.21 57.21 0 005.33 5.24c.92.76 2 1.53 3 2.31s2 1.53 3 2.28a79.14 79.14 0 0027 13.06 89.47 89.47 0 0014.91 2.6l1.89.15a17 17 0 001.85.09 5.52 5.52 0 003.27-1.15 5.72 5.72 0 001.88-2.94 7.14 7.14 0 000-3.41 6.07 6.07 0 00-1.86-1.88 21.66 21.66 0 00-2.9-1.64c-2-1-4.1-1.8-6.21-2.61l-12.68-4.83c-2.1-.83-4.21-1.69-6.31-2.57-1.06-.44-2.07-.84-3.16-1.36a27.07 27.07 0 01-3.17-1.74 31 31 0 01-9.74-10.35 45.59 45.59 0 01-5.19-13 53.28 53.28 0 01-1.46-13.84c0-1.17.11-2.34.25-3.5q.1-.87.27-1.74c.09-.61.18-1.06.25-1.62a40.08 40.08 0 00.18-6.59c-.1-2.23-.25-4.47-.52-6.69a55.25 55.25 0 00-1.08-6.3 45.65 45.65 0 00-4.67-3.52l.23-.38.22-.38a47.63 47.63 0 016.76 5.09 48.5 48.5 0 012.44 2.32l.14.14c.84.86 1.65 1.74 2.42 2.65a45 45 0 014.88 6.92 39.84 39.84 0 012.6 5.48c.73 1.92 1.25 3.76 2 5.55a55.38 55.38 0 005.64 10.23 45.57 45.57 0 007.73 8.65 21.15 21.15 0 009.94 5.07 11.83 11.83 0 005.36-.37 11.46 11.46 0 004.67-2.53 4.87 4.87 0 001.39-2.5 6.05 6.05 0 00.15-2 17.09 17.09 0 00-1.43-5.31c-1.48-3.54-3.46-7-5.31-10.5-1-1.78-1.82-3.53-2.76-5.24s-1.93-3.41-3-5.08c-2-3.35-4.27-6.61-6.45-9.94a70.8 70.8 0 01-6-10.57 33.22 33.22 0 01-1.32-3.58c-.24-.77-.44-1.55-.62-2.34a58.13 58.13 0 01-1-6c-.46-4-.7-8-1.09-11.88a77 77 0 00-1.84-11.48 27 27 0 00-4.65-10.09l-.2-.24-.09-.31c-.19-.58-.37-1.15-.56-1.72-.36-1.13-.73-2.26-1.1-3.39s-.72-2.2-1.09-3.29c-.42-1.26-.86-2.52-1.3-3.77q-1.45-4.25-3-8.45c-1.26-3.4-2.59-6.79-4-10.09-.77-1.74-1.55-3.51-2.41-5.19-.56 3.42-1.26 6.79-2 10.18a150.07 150.07 0 01-4.31 14.81 109.94 109.94 0 01-6 14.25c-1.19 2.29-2.52 4.57-3.87 6.72s-2.57 4.3-3.73 6.51A109.49 109.49 0 0050 210.65a46.76 46.76 0 003.75 14.29zm57.82-2.54a23.22 23.22 0 0112.26-5s5.23 5.93 4.59 10.71a5.16 5.16 0 01-.52 1.7c-2.53 4.94-9 4-12.38 1.75-1.78-1.16-5-3.08-6.62-6.58a18.75 18.75 0 012.67-2.58zM195.65 158c-.39 3.91-.63 7.88-1.09 11.88a60.94 60.94 0 01-1 6c-.17.79-.39 1.57-.62 2.34a31.27 31.27 0 01-1.33 3.58 70.71 70.71 0 01-6 10.57c-2.2 3.33-4.41 6.59-6.46 9.94q-1.55 2.51-3 5.08c-.94 1.71-1.82 3.46-2.76 5.24-1.86 3.52-3.83 7-5.31 10.5a17.68 17.68 0 00-1.44 5.31 6.43 6.43 0 00.15 2 5 5 0 001.4 2.49 11.46 11.46 0 004.67 2.53 11.83 11.83 0 005.36.37 21.12 21.12 0 009.93-5.07 45.23 45.23 0 007.73-8.65 55.43 55.43 0 005.65-10.23c.78-1.79 1.32-3.63 2-5.55a37.64 37.64 0 012.6-5.48 46.62 46.62 0 015.06-7.15c.72-.83 1.47-1.64 2.23-2.42l.14-.13c.74-.75 1.49-1.47 2.27-2.17a47.54 47.54 0 016.94-5.25l.22.38.23.38a46.9 46.9 0 00-4.68 3.52 57.53 57.53 0 00-1.07 6.3c-.28 2.22-.43 4.46-.53 6.69a43.69 43.69 0 00.18 6.59c.07.56.16 1 .26 1.62s.19 1.16.26 1.74c.14 1.16.23 2.33.26 3.5a52.44 52.44 0 01-1.47 13.84 45.57 45.57 0 01-5.18 13 31 31 0 01-9.75 10.35 26.28 26.28 0 01-3.17 1.74c-1.08.52-2.09.92-3.16 1.36q-3.15 1.32-6.31 2.57l-12.68 4.83c-2.11.81-4.19 1.65-6.21 2.61a23 23 0 00-2.9 1.64 6.1 6.1 0 00-1.86 1.89 7.32 7.32 0 000 3.39 5.74 5.74 0 001.89 2.94 5.49 5.49 0 003.26 1.15 16.83 16.83 0 001.85-.09l1.9-.15a89.47 89.47 0 0014.91-2.6 79.46 79.46 0 0027-13.06c1-.75 2-1.5 3-2.28s2.07-1.55 3-2.31a56.1 56.1 0 005.34-5.24 102.09 102.09 0 009.25-11.89 81.75 81.75 0 007.39-13.2 47.33 47.33 0 003.79-14.29 108 108 0 00-1.9-30 106.87 106.87 0 00-9.94-28.29c-1.16-2.21-2.39-4.38-3.72-6.51s-2.69-4.43-3.87-6.72a110 110 0 01-6.06-14.25 147.34 147.34 0 01-4.3-14.81c-.79-3.38-1.49-6.74-2-10.16-.86 1.67-1.65 3.43-2.41 5.17-1.43 3.3-2.75 6.69-4 10.09q-1.78 4.74-3.41 9.55c-.31.89-.61 1.78-.91 2.67-.36 1.06-.71 2.11-1.06 3.17-.35 1.09-.71 2.19-1.07 3.28l-.6 1.91-.11.31-.19.24a26.82 26.82 0 00-4.65 10.09 75.7 75.7 0 00-1.94 11.61zm-13.22 73.57c-3.37 2.23-9.85 3.19-12.37-1.75a5.06 5.06 0 01-.54-1.84c-.52-4.77 4.6-10.57 4.6-10.57a23.18 23.18 0 0112.2 5 19.09 19.09 0 012.74 2.59c-1.65 3.44-4.85 5.36-6.63 6.52zM97.63 333.74v-3a24.64 24.64 0 00-3.71.51 13.14 13.14 0 00-3.42 1.19 7 7 0 00-2.46 2 4.88 4.88 0 00-.94 3 3.65 3.65 0 001.28 2.83 4.27 4.27 0 002.74.91 7.75 7.75 0 003.51-.77 12.91 12.91 0 003-2.12c0-.41-.06-.84-.06-1.27v-1.39q.03-.51.06-1.89zM88.92 395.58a4.46 4.46 0 001.78-2.09 7.19 7.19 0 00.51-2.69 4.35 4.35 0 00-.77-2.77 3.73 3.73 0 00-2.06-1.31 11.75 11.75 0 00-2.89-.34 5.4 5.4 0 00-2.8.63c-.7.41-1 1.37-1 2.88v6.68l3.67-.06a7.23 7.23 0 003.56-.93zM247.2 330.54h2l1.81-.08v-8.38-1.87c0-.53 0-1 .08-1.35-.68 0-1.45-.06-2.32-.06s-1.51 0-1.92.06a5.78 5.78 0 00-3.85 1.33 5.33 5.33 0 00-1.64 4.21 6.42 6.42 0 001.56 4.42 5.36 5.36 0 004.28 1.72zM287.63 401.63v-3a24.46 24.46 0 00-3.71.51 13.51 13.51 0 00-3.42 1.18 7.09 7.09 0 00-2.46 2 4.81 4.81 0 00-.94 3 3.65 3.65 0 001.28 2.83 4.32 4.32 0 002.74.9 7.74 7.74 0 003.51-.76 13.44 13.44 0 003-2.12c0-.42-.06-.84-.06-1.27v-1.39c.03-.32.04-.95.06-1.88zM155.51 333.74v-3a24.64 24.64 0 00-3.71.51 13.14 13.14 0 00-3.42 1.19 7 7 0 00-2.46 2 4.87 4.87 0 00-.93 3 3.65 3.65 0 001.27 2.83 4.29 4.29 0 002.74.91 7.75 7.75 0 003.51-.77 12.91 12.91 0 003-2.12c0-.41-.06-.84-.06-1.27v-1.39q.03-.51.06-1.89z"/><path class="cls-2" d="M51.83 341.18c-.57 0-1.24.06-2 .08s-1.48.07-2.12.14a17.26 17.26 0 00.14-1.95v-13.66l18.73-.17v9.9a21.75 21.75 0 01-.23 3.45 3.22 3.22 0 01-1.05 2 4.72 4.72 0 01-2.69.79v2.49h13.94v-3.11l-2 .08c-.76 0-1.46.07-2.1.14a13.56 13.56 0 00.14-1.95v-25.96a21.63 21.63 0 01.23-3.48 3.32 3.32 0 011.07-2 4.39 4.39 0 012.66-.76v-2.49H62.63v3.11l2-.11 2.1-.11q-.06.84-.12 2c0 .77-.05 1.57-.05 2.4v10.69H47.87v-9.22a21.8 21.8 0 01.22-3.48 3.28 3.28 0 011.08-2 4.34 4.34 0 012.66-.76v-2.49H37.91v3.11l2-.11 2.09-.11c0 .56-.08 1.23-.11 2s-.06 1.57-.06 2.4v23.54a21.75 21.75 0 01-.23 3.45 3.25 3.25 0 01-1 2 4.77 4.77 0 01-2.69.79v2.49h13.92zM91.89 328.7a22.36 22.36 0 00-5.43 1.81 11.39 11.39 0 00-4 3.14 7.05 7.05 0 00-1.53 4.53 6.66 6.66 0 002.07 5c1.37 1.34 3.42 2 6.13 2a11.09 11.09 0 004.59-1 14 14 0 004.13-2.91c.07.49.13 1 .17 1.41s.09 1 .17 1.59h9v-3q-.9 0-1.92.06l-2 .11c.07-.79.13-1.55.17-2.26s.06-1.36.06-1.93v-4V325.61c0-3.66-.8-6.33-2.4-8s-4-2.55-7.27-2.55A17.48 17.48 0 0088 316a10 10 0 00-4.1 2.49 5.1 5.1 0 00-1.5 3.62 3.48 3.48 0 00.71 2.18 2.42 2.42 0 002.06.93 2.49 2.49 0 002.32-.93 3.3 3.3 0 00.68-1.79 5.1 5.1 0 00-.14-1.1 2.24 2.24 0 00-.6-1 4.56 4.56 0 012.27-2 7.28 7.28 0 012.94-.54 4.64 4.64 0 013.25 1 4.87 4.87 0 011.39 2.55 16.23 16.23 0 01.34 3.37v3.34a28.76 28.76 0 00-5.73.58zm5.77 9.59a12.91 12.91 0 01-3 2.12 7.75 7.75 0 01-3.51.77 4.27 4.27 0 01-2.74-.91 3.65 3.65 0 01-1.28-2.83 4.88 4.88 0 01.94-3 7 7 0 012.46-2 13.14 13.14 0 013.47-1.22 24.64 24.64 0 013.71-.51V337c-.11.45-.09.88-.05 1.29zM135.57 316h-25.8l-.23 9.11h2.66c0-2.3.37-3.89 1.1-4.76a4.35 4.35 0 013.48-1.3h3.12q-.12 1.08-.15 2V335.62a28.45 28.45 0 01-.17 3.28 4.13 4.13 0 01-.85 2.21 3 3 0 01-2.38.79v2.38H129v-3l-3.62.17a15.49 15.49 0 00.2-2.12v-20.28h2.77a4.56 4.56 0 013.68 1.3c.72.87 1.09 2.46 1.13 4.76h2.66zM161.14 341.46c.08-.79.13-1.55.17-2.26s.06-1.36.06-1.93v-4V325.63c0-3.66-.81-6.33-2.41-8s-4-2.55-7.27-2.55a17.53 17.53 0 00-5.83.91 10 10 0 00-4.1 2.49 5.1 5.1 0 00-1.5 3.62 3.54 3.54 0 00.71 2.18 2.43 2.43 0 002.06.93 2.48 2.48 0 002.32-.93 3.22 3.22 0 00.68-1.79 5.1 5.1 0 00-.14-1.1 2.22 2.22 0 00-.59-1 4.5 4.5 0 012.26-2 7.28 7.28 0 012.94-.54 4.67 4.67 0 013.26 1 4.86 4.86 0 011.38 2.55 15.58 15.58 0 01.34 3.37v3.34a28.76 28.76 0 00-5.77.59 22.65 22.65 0 00-5.43 1.81 11.48 11.48 0 00-4 3.14 7.05 7.05 0 00-1.53 4.53 6.66 6.66 0 002.07 5q2.05 2 6.14 2a11.08 11.08 0 004.58-1 13.91 13.91 0 004.13-2.91c.08.49.13 1 .17 1.41s.09 1 .17 1.59h9v-3c-.61 0-1.25 0-1.93.06zm-5.6-3.17a12.91 12.91 0 01-3 2.12 7.75 7.75 0 01-3.51.77 4.29 4.29 0 01-2.74-.91 3.65 3.65 0 01-1.27-2.83 4.87 4.87 0 01.93-3 7 7 0 012.46-2 13.14 13.14 0 013.42-1.19 24.64 24.64 0 013.71-.51V337c-.06.45-.04.88 0 1.29zM173.31 319.05l5.32-.28a104.16 104.16 0 01-1.33 13.15 29.3 29.3 0 01-2.15 7.45c-.82 1.58-1.64 2.37-2.47 2.37a.91.91 0 01-.5-.17 1.22 1.22 0 00.16-.48 3.42 3.42 0 00.06-.65 2.48 2.48 0 00-.65-1.61 2.64 2.64 0 00-2.12-.77 3.06 3.06 0 00-2.21.91 3.26 3.26 0 00-.79 2.32 3.22 3.22 0 001.3 2.66 5.65 5.65 0 003.57 1 6.43 6.43 0 004.5-1.76 13.1 13.1 0 003.11-4.83 35.57 35.57 0 001.89-7.11 80.09 80.09 0 001-8.6 4.8 4.8 0 01.68-2.77 2.73 2.73 0 012.38-1h4.75a15.65 15.65 0 00-.2 2v14.62c0 1.25-.11 2.34-.2 3.28a3.84 3.84 0 01-.85 2.21 3.09 3.09 0 01-2.41.79v2.38h12.68v-3l-3.62.17a19.55 19.55 0 00.22-2.12l.12-2.07v-12.49a31.88 31.88 0 01.14-3.28 3.67 3.67 0 01.85-2.2 3 3 0 012.35-.8V316h-25.58zM207.14 323v14.54a5.54 5.54 0 01-.76 3.32 3.24 3.24 0 01-2.63 1v2.38h15.56a11.37 11.37 0 004.69-1 7.8 7.8 0 004.76-7.59 8.34 8.34 0 00-1.11-4.24 7.27 7.27 0 00-3.82-3 20.22 20.22 0 00-7.58-1l-3.22.11v-4.3a18 18 0 01.14-2.37 3.1 3.1 0 01.85-1.87 3.24 3.24 0 012.4-.74V316h-12.67v3c.53 0 1.1-.07 1.72-.09l1.84-.08c-.07.68-.12 1.37-.14 2.09s-.03 1.42-.03 2.08zm5.86 17.07c0-.54.06-1.16.06-1.84v-8q.9-.06 1.92-.09h2.15a5.84 5.84 0 014.22 1.5 5.69 5.69 0 011.55 4.27 5.18 5.18 0 01-1.61 4.22 6.06 6.06 0 01-4 1.33h-2.86c-.59 0-1.1 0-1.55-.06.01-.32.05-.78.12-1.33zM240.21 342.76a27 27 0 003.09-3.68q.62-.84 1.38-2c.51-.77 1-1.52 1.53-2.26a12.32 12.32 0 011.39-1.72l3.45-.06v3.85a10.88 10.88 0 01-.51 3.59c-.34 1-1.21 1.44-2.6 1.44v2.38h12.39v-3l-3.62.17a17.24 17.24 0 00.2-2.12v-16.62a7.17 7.17 0 01.37-2.52 2.71 2.71 0 011.11-1.38 3.61 3.61 0 011.92-.46V316h-15.2a11.63 11.63 0 00-4.73 1 8.15 8.15 0 00-3.48 2.83 7.85 7.85 0 00-1.3 4.58 7.33 7.33 0 001.73 4.84 9.56 9.56 0 005.63 2.86 7.2 7.2 0 00-1.36.68 3.92 3.92 0 00-1.13 1.13l-2 2.66-2.15 2.74a10 10 0 01-1.93 1.92 3.55 3.55 0 01-2.2.71v2.38h4.86a4.51 4.51 0 003.16-1.57zm1.22-18.39a5.33 5.33 0 011.64-4.21 5.78 5.78 0 013.85-1.33q.62-.06 1.92-.06c.87 0 1.64 0 2.32.06 0 .37-.06.83-.08 1.35s0 1.16 0 1.87v8.38l-1.81.08h-2a5.36 5.36 0 01-4.21-1.75 6.42 6.42 0 01-1.63-4.39zM8.49 375.69l4.41-.17h1.3v7.8a85 85 0 01-.85 12 46.28 46.28 0 01-2 8.31A18.79 18.79 0 019 408.45c-.8 1.06-1.49 1.55-2.1 1.55a1.35 1.35 0 01-1-.4 2.07 2.07 0 00.57-1.53 3.15 3.15 0 00-.77-2 2.71 2.71 0 00-2.34-.87 3.21 3.21 0 00-2.52 1.1 3.78 3.78 0 00-.84 2.55A3.56 3.56 0 001.67 412a7.06 7.06 0 004 1.13 6.37 6.37 0 004.22-1.61 12.91 12.91 0 003.25-4.64 36.75 36.75 0 002.27-7.19 78.8 78.8 0 001.38-9.22q.48-5.07.54-10.84a6.28 6.28 0 01.76-3 3 3 0 012.64-1l6.84-.11v27.95a21.91 21.91 0 01-.22 3.45 3.17 3.17 0 01-1.08 2 4.8 4.8 0 01-2.72.8v2.49h14v-3.12q-.9.06-2 .09c-.75 0-1.45.06-2.09.14a17.26 17.26 0 00.14-1.95v-26.02a20.53 20.53 0 01.23-3.48 3.22 3.22 0 011.07-2 4.36 4.36 0 012.66-.76v-2.49H8.49zM63.51 407.38a13.47 13.47 0 01-3.28 1.55 10.88 10.88 0 01-3.25.54 7.81 7.81 0 01-5.15-1.64 9.19 9.19 0 01-2.83-4.64 24.59 24.59 0 01-.88-6.85l19.44-.34a16.49 16.49 0 00-1-6 10.67 10.67 0 00-2.56-4 10.48 10.48 0 00-3.79-2.29 13.6 13.6 0 00-4.49-.74 13.31 13.31 0 00-7.47 2.12 14.61 14.61 0 00-5 5.57 16 16 0 00-1.78 7.42 16.54 16.54 0 001.81 7.95 13 13 0 005 5.2 13.74 13.74 0 007.1 1.84 17.23 17.23 0 004.22-.59 15.37 15.37 0 004.49-2 13.8 13.8 0 003.91-4l-1.76-1.53a10.23 10.23 0 01-2.73 2.43zm-12.64-19.72a6.69 6.69 0 014.92-1.9 4.84 4.84 0 013.17 1 6 6 0 011.84 2.74 12.11 12.11 0 01.59 3.88H48.32a10.09 10.09 0 012.55-5.72zM91.21 397.25a8 8 0 004.5-2.72 6.78 6.78 0 001.38-4.13 5.37 5.37 0 00-2.43-4.92 12.12 12.12 0 00-6.73-1.64H72.37v2.78c.49 0 1.06-.07 1.72-.09s1.28 0 1.84-.08c-.07.45-.13 1-.17 1.53s-.05 1.18-.05 1.86v15.56a5.67 5.67 0 01-.74 3.31 3.26 3.26 0 01-2.66 1.05v2.38h16.41a13.22 13.22 0 005-.94 8.62 8.62 0 003.65-2.71 7.06 7.06 0 001.35-4.39 6.32 6.32 0 00-1.86-4.64 9.14 9.14 0 00-5.65-2.21zm-9.56-7.36c0-1.51.34-2.47 1-2.88a5.4 5.4 0 012.8-.63 11.75 11.75 0 012.89.34 3.73 3.73 0 012.1 1.28 4.35 4.35 0 01.77 2.77 7.19 7.19 0 01-.51 2.69 4.46 4.46 0 01-1.78 2.09 7.23 7.23 0 01-3.6.93l-3.67.06zm9.25 18.19a7.11 7.11 0 01-4.5 1.28h-3.27c-.72 0-1.26 0-1.75-.05a10.76 10.76 0 00.17-1.39c0-.55.06-1.16.06-1.84v-7c.6 0 1.32-.06 2.15-.08h2.49a8.12 8.12 0 014.32 1.16 4.28 4.28 0 011.9 4 4.65 4.65 0 01-1.57 3.92zM124 384.83a14.34 14.34 0 00-7.25-1.84 13.15 13.15 0 00-7.18 2 14.5 14.5 0 00-5.12 5.57 16.85 16.85 0 00-1.9 8.12 14.57 14.57 0 001.9 7.5 13.45 13.45 0 005.12 5.06 14.49 14.49 0 007.24 1.81 13.23 13.23 0 007.27-2 14.31 14.31 0 005.06-5.6 17 17 0 001.87-8 14.66 14.66 0 00-1.89-7.5 13.74 13.74 0 00-5.12-5.12zm-.29 19.52a9.5 9.5 0 01-2.23 4.21 5.77 5.77 0 01-4.27 1.7 6 6 0 01-4.56-1.92 11.85 11.85 0 01-2.63-4.92 23.06 23.06 0 01-.85-6.34 19.42 19.42 0 01.76-5.46 9.59 9.59 0 012.44-4.22 5.91 5.91 0 014.33-1.64 5.29 5.29 0 013.56 1.11 8.46 8.46 0 012.38 3.08 17.64 17.64 0 011.33 4.27 27.14 27.14 0 01.42 4.78 21 21 0 01-.65 5.35zM150.84 386.89l3.17-.17a15.9 15.9 0 00-.2 2.1v2.09l-.06 6.45a13.06 13.06 0 01-2.35.48 18.6 18.6 0 01-2.29.14c-2 0-3.51-.55-4.41-1.67a7.36 7.36 0 01-1.36-4.78c0-2.07.22-3.47.68-4.18a2.64 2.64 0 012.43-1.08v-2.38H134v3l3.56-.17c-.07.68-.13 1.44-.17 2.27s-.05 1.75-.05 2.77q.1 4.75 2.57 7.33t7.5 2.57a23 23 0 003-.22 28.71 28.71 0 003.25-.63v2.72c0 1.24 0 2.34-.14 3.28a4 4 0 01-.82 2.21 3 3 0 01-2.38.79v2.38H163v-3l-3.57.17c.08-.72.14-1.43.17-2.13s.06-1.38.06-2.06v-12.62c0-1.24.1-2.34.2-3.28a3.92 3.92 0 01.82-2.21 2.94 2.94 0 012.32-.79v-2.38h-12.16zM192.54 407.49a19.7 19.7 0 01-1.55-1.84c-.44-.58-.75-1-.94-1.22l-4-5.09a18 18 0 00-1.69-1.95 6.93 6.93 0 00-1.87-1.27l4.19-4.42a28.42 28.42 0 012.2-2.2 16.18 16.18 0 012.92-2.12 9 9 0 013.59-1.16v-2.33h-11.11v2.95l3.57-.12a12.19 12.19 0 00-1.36 1.19l-1.58 1.59-5.91 6.39h-2.37v-3.34a31.75 31.75 0 01.14-3.28 3.8 3.8 0 01.85-2.21 3 3 0 012.35-.79v-2.38h-12.66v3l1.75-.08c.64 0 1.27-.05 1.87-.09a15.9 15.9 0 00-.2 2.1V403.53a28.57 28.57 0 01-.17 3.28 4.16 4.16 0 01-.85 2.21 3 3 0 01-2.38.79v2.38h12.68v-3l-1.79.08c-.62 0-1.23.05-1.84.09a15.63 15.63 0 00.2-2.13v-2.06l.06-6.45 1.92-.11a22.85 22.85 0 011.61 2c.63.87 1.31 1.84 2.07 2.92s1.58 2.21 2.49 3.42q1.63 2.14 3 3.68a4 4 0 003 1.53h5.6v-2.38a3.39 3.39 0 01-1.89-.68 11.92 11.92 0 01-1.9-1.61zM218.12 386.89l1.72-.08c.63 0 1.24-.05 1.84-.09-.05.44-.07.89-.11 1.34l-12.9 14.79v-10.3c0-1.24.1-2.34.2-3.28a3.92 3.92 0 01.82-2.21 3 3 0 012.37-.79v-2.38h-12.67v3l1.75-.08c.65 0 1.27-.05 1.87-.09a15.9 15.9 0 00-.2 2.1V403.53a28.57 28.57 0 01-.17 3.28 4.16 4.16 0 01-.85 2.21 3 3 0 01-2.38.79v2.38H212v-3l-1.73.08c-.62 0-1.23.05-1.84.09.07-.66.12-1.3.16-1.94l12.86-14.92v11a28.57 28.57 0 01-.17 3.28 4.16 4.16 0 01-.85 2.21 3 3 0 01-2.38.79v2.38h12.68v-3l-1.76.08q-1 0-1.86.09c.07-.72.13-1.43.16-2.13s.06-1.38.06-2.06l.06-12.62a31.75 31.75 0 01.14-3.28 3.8 3.8 0 01.85-2.21 3 3 0 012.35-.79v-2.38h-12.61zM253.88 386.89l3.62-.17a15.9 15.9 0 00-.2 2.1v7.41h-12.53v-3.68c0-1.24.1-2.34.2-3.28a3.85 3.85 0 01.82-2.21 3 3 0 012.37-.79v-2.38h-12.67v3l3.56-.17c-.07.68-.12 1.38-.14 2.1s0 1.41 0 2.09v12.62a26.47 26.47 0 01-.17 3.28 4.08 4.08 0 01-.84 2.21 3 3 0 01-2.38.79v2.38h12.62v-3l-3.57.17c.08-.72.13-1.43.17-2.13s.06-1.38.06-2.06v-5.85l12.47-.13v4.34a31.51 31.51 0 01-.15 3.28 3.85 3.85 0 01-.82 2.21 3 3 0 01-2.37.79v2.38h12.67v-3l-3.62.17a17.4 17.4 0 00.2-2.13v-14.68c0-1.24.05-2.34.14-3.28a3.86 3.86 0 01.85-2.21 3.05 3.05 0 012.35-.79v-2.38h-12.64zM295.24 409.24l-2 .12c.07-.8.13-1.55.17-2.27s.05-1.35.05-1.92v-4V393.53q0-5.49-2.4-8t-7.19-2.53a17.71 17.71 0 00-5.83.9 10.12 10.12 0 00-4.1 2.49 5.14 5.14 0 00-1.5 3.63 3.48 3.48 0 00.7 2.17 2.42 2.42 0 002.07.94 2.5 2.5 0 002.32-.94 3.27 3.27 0 00.68-1.78 5 5 0 00-.14-1.1 2.23 2.23 0 00-.6-1.05 4.54 4.54 0 012.26-1.95 7 7 0 012.95-.54 4.6 4.6 0 013.25 1 4.84 4.84 0 011.39 2.55 16.23 16.23 0 01.34 3.37V396a29 29 0 00-5.78.6 22.22 22.22 0 00-5.43 1.81 11.35 11.35 0 00-4 3.14 7.05 7.05 0 00-1.53 4.53 6.72 6.72 0 002.06 5q2.07 2 6.14 2a11.12 11.12 0 004.59-1 14 14 0 004.13-2.91c.07.49.13 1 .17 1.41s.09 1 .17 1.59h9v-3c-.62.02-1.26.04-1.94.07zm-7.58-3.05a13.44 13.44 0 01-3 2.12 7.74 7.74 0 01-3.51.76 4.32 4.32 0 01-2.74-.9 3.65 3.65 0 01-1.28-2.83 4.81 4.81 0 01.94-3 7.09 7.09 0 012.46-2 13.51 13.51 0 013.42-1.18 24.46 24.46 0 013.71-.51v6.29c-.06.41-.04.83 0 1.25zM51.44 225.94A84.32 84.32 0 0059 239.43a102.45 102.45 0 009.62 12 58.4 58.4 0 005.62 5.37c1.06.85 2.06 1.53 3.08 2.31s2 1.53 3.09 2.28a81.82 81.82 0 0013.29 7.79 78.2 78.2 0 0014.55 5 89.53 89.53 0 0015.17 2.3c.63 0 1.27.07 1.91.11a18 18 0 002 0 6.46 6.46 0 003.77-1.43 5.85 5.85 0 002-3.46 5.65 5.65 0 00-.48-3.33 2.59 2.59 0 00-.11-.37 10.7 10.7 0 003.79 1 20.4 20.4 0 002.06.16 8.19 8.19 0 002.14-.18 4.33 4.33 0 002-1.05 4.08 4.08 0 001.07-2 7.56 7.56 0 00.16-2.16c0-.35-.06-.7-.11-1.05a7.64 7.64 0 00-.28-1.07 13.4 13.4 0 00-4.33-5.6l1.26.17a71 71 0 0013.2.4 61.9 61.9 0 005.42-.59 13.37 13.37 0 00-4.36 5.62 6.47 6.47 0 00-.28 1.07c-.05.35-.09.7-.11 1.05a7.22 7.22 0 00.16 2.16 4.08 4.08 0 001.07 2 4.35 4.35 0 002 1.05 8.23 8.23 0 002.14.18 20.6 20.6 0 002.07-.16 10.76 10.76 0 003.79-1 1.8 1.8 0 00-.1.33 5.68 5.68 0 00-.49 3.34 5.85 5.85 0 002 3.46 6.49 6.49 0 003.77 1.43 18.18 18.18 0 002 0c.63 0 1.27-.06 1.91-.11a89.53 89.53 0 0015.17-2.3 78.45 78.45 0 0014.55-5 81.73 81.73 0 0013.28-7.79c1-.75 2.08-1.51 3.1-2.28s2-1.46 3.08-2.31a60.83 60.83 0 005.62-5.37 100.35 100.35 0 009.61-12 83.55 83.55 0 007.54-13.49 49.91 49.91 0 004.14-15.06 112.52 112.52 0 00-11.6-60q-1.75-3.46-3.8-6.77c-1.33-2.15-2.57-4.27-3.71-6.51a106.42 106.42 0 01-5.8-13.84 146.42 146.42 0 01-4.13-14.5 149 149 0 01-2.7-14.78l-.58-4.63-2.6 3.81a43.85 43.85 0 00-2.84 5c-.83 1.68-1.6 3.37-2.33 5.06-1.46 3.39-2.8 6.82-4.08 10.26-1.08 2.9-2.11 5.81-3.13 8.72a250.93 250.93 0 00-16.5-30.49c-3.8-6.06-7.86-12-12.11-17.71-1.06-1.43-2.14-2.87-3.23-4.29l-1.65-2.11-.83-1.06-.74-1-1.48-2c-.49-.7-.9-1.45-1.35-2.17s-.92-1.44-1.3-2.21l-1.18-2.28a106.66 106.66 0 01-7.26-19.49c-1-3.35-1.77-6.76-2.51-10.18s-1.36-6.9-1.84-10.29L148.71 0l-2.13 17.38c-.52 4.09-1.3 8.28-2.17 12.38S142.48 38 141.24 42c-.58 2-1.29 4-2 6-.36 1-.76 2-1.13 2.92l-.56 1.46-.55 1.33a63.78 63.78 0 01-5.88 10.83L129.29 67l-2 2.54a216.4 216.4 0 00-3.89 5.14q-3.83 5.19-7.4 10.52-7.23 10.67-13.49 22c-2.09 3.76-4.06 7.6-5.93 11.48-.66 1.37-1.3 2.73-1.93 4.11-1-2.93-2-5.85-3.13-8.77-1.28-3.44-2.62-6.87-4.08-10.26-.73-1.69-1.5-3.38-2.34-5.06a42.27 42.27 0 00-2.83-5l-2.6-3.81-.58 4.63a149.06 149.06 0 01-2.71 14.78 143.75 143.75 0 01-4.13 14.5 106.42 106.42 0 01-5.8 13.84c-1.13 2.24-2.36 4.36-3.7 6.51s-2.63 4.46-3.81 6.77a109.56 109.56 0 00-9.94 29.2 111 111 0 00-1.65 30.76 49.89 49.89 0 004.09 15.06zM142.56 262a5.22 5.22 0 01.22.93 8.14 8.14 0 01.1 1 6.81 6.81 0 01-.16 1.92 3.26 3.26 0 01-2.46 2.44 15.69 15.69 0 01-4 .18c-.68 0-1.35-.09-2-.17a7.74 7.74 0 01-1.93-.44 6.48 6.48 0 00-1.46-1.92 17.59 17.59 0 00-2.74-2.12 59.78 59.78 0 00-6-3.39c-2-1-4.09-2-6.14-3l-6.17-2.83-6.16-2.81c-1-.48-2.09-.95-3-1.43a21.3 21.3 0 01-2.74-1.57 30.22 30.22 0 01-8.69-9.3 50.17 50.17 0 01-7-25.05c0-1.1 0-2.19.13-3.27 0-.55.1-1.09.18-1.63s.16-1.18.2-1.75a43.7 43.7 0 00-.11-7 59.57 59.57 0 00-2.19-11.56q.62.57 1.23 1.17a102.1 102.1 0 002.65 16.6 67.34 67.34 0 0011 23.91 58.66 58.66 0 009 9.71 65.21 65.21 0 0010.9 7.48c1 .51 1.94 1.06 2.93 1.53l3 1.39c2 .83 4.07 1.68 6.18 2.33a70.56 70.56 0 0010.45 2.65 14.23 14.23 0 014.78 6zm20.88 6.28c-.66.08-1.34.14-2 .17a15.67 15.67 0 01-4-.18 3.23 3.23 0 01-2.46-2.44 6.46 6.46 0 01-.16-1.92c0-.32.05-.66.09-1a5.26 5.26 0 01.23-.93 14.31 14.31 0 014.82-6.06c2.15-.37 4.29-.84 6.41-1.39a70.71 70.71 0 0023.68-11.36 60.87 60.87 0 009.69-9 61.8 61.8 0 007.4-11 67.93 67.93 0 005-12.2A87.88 87.88 0 00215 198.2c.37-2.52.65-5.06.84-7.58.46-.47.93-.92 1.4-1.36a58.79 58.79 0 00-2.17 11.56 43.68 43.68 0 00-.13 7c0 .57.15 1.24.21 1.75s.13 1.08.18 1.63c.09 1.08.13 2.17.13 3.27a50.27 50.27 0 01-7 25.05 30.13 30.13 0 01-8.7 9.3 20 20 0 01-2.74 1.57c-.94.48-2 .95-3 1.43l-6.15 2.81-6.18 2.83c-2.05 1-4.1 1.94-6.14 3a60.92 60.92 0 00-6 3.39 18.58 18.58 0 00-2.74 2.12 6.25 6.25 0 00-1.44 1.92 7.72 7.72 0 01-1.93.38zm38.89-132.13l.11-.31.6-1.91c.36-1.09.72-2.19 1.07-3.28.35-1.06.7-2.11 1.06-3.17.3-.89.6-1.78.91-2.67q1.64-4.8 3.41-9.55c1.28-3.4 2.6-6.79 4-10.09.76-1.74 1.55-3.5 2.41-5.17.55 3.42 1.25 6.78 2 10.16a147.34 147.34 0 004.3 14.81 110 110 0 006.06 14.25c1.18 2.29 2.52 4.57 3.87 6.72s2.56 4.3 3.72 6.51a106.87 106.87 0 019.94 28.29 108 108 0 011.9 30 47.33 47.33 0 01-3.69 14.2 81.75 81.75 0 01-7.19 13.18 102.09 102.09 0 01-9.27 11.88 56.1 56.1 0 01-5.34 5.24c-.91.76-2 1.53-3 2.31s-2 1.53-3 2.28a79.46 79.46 0 01-27 13.06 89.47 89.47 0 01-14.91 2.6l-1.9.15a16.83 16.83 0 01-1.85.09 5.49 5.49 0 01-3.26-1.15 5.74 5.74 0 01-1.89-2.94 7.32 7.32 0 010-3.39 6.1 6.1 0 011.86-1.89 23 23 0 012.9-1.64c2-1 4.1-1.8 6.21-2.61l12.64-4.83q3.16-1.25 6.31-2.57c1.07-.44 2.08-.84 3.16-1.36a26.28 26.28 0 003.17-1.74 31 31 0 009.75-10.35 45.57 45.57 0 005.18-13 52.44 52.44 0 001.43-13.85c0-1.17-.12-2.34-.26-3.5-.07-.58-.15-1.16-.26-1.74s-.19-1.06-.26-1.62a43.69 43.69 0 01-.18-6.59c.1-2.23.25-4.47.53-6.69a57.53 57.53 0 011.07-6.3 46.9 46.9 0 014.68-3.52l-.23-.38-.22-.38a47.54 47.54 0 00-6.94 5.25c-.78.7-1.53 1.42-2.27 2.17l-.14.13c-.76.78-1.51 1.59-2.23 2.42a46.62 46.62 0 00-5.06 7.15 37.64 37.64 0 00-2.6 5.48c-.72 1.92-1.26 3.76-2 5.55a55.43 55.43 0 01-5.63 10.23 45.23 45.23 0 01-7.73 8.65 21.12 21.12 0 01-9.93 5.07 11.83 11.83 0 01-5.36-.37 11.46 11.46 0 01-4.67-2.53 5 5 0 01-1.4-2.49 6.43 6.43 0 01-.15-2 17.68 17.68 0 011.44-5.31c1.48-3.54 3.45-7 5.31-10.5.94-1.78 1.82-3.53 2.76-5.24s1.93-3.41 3-5.08c2.05-3.35 4.26-6.61 6.46-9.94a70.71 70.71 0 006-10.57 31.27 31.27 0 001.27-3.56c.23-.77.45-1.55.62-2.34a60.94 60.94 0 001-6c.46-4 .7-8 1.09-11.88a75.7 75.7 0 011.84-11.48 26.82 26.82 0 014.65-10.09zm-101.69-15.53q2.74-5.7 5.81-11.25 6.14-11.09 13.28-21.61 3.57-5.25 7.34-10.35c1.27-1.7 2.54-3.39 3.84-5.06l2-2.49 2-2.72a69.17 69.17 0 006.32-11.6l.67-1.5.59-1.52c.39-1 .8-2 1.18-3.05.69-2 1.43-4.1 2-6.19 1.28-4.14 2.35-8.33 3.26-12.56.61 2.81 1.28 5.61 2.06 8.37a113.1 113.1 0 007.58 20.34l1.27 2.44c.41.82.94 1.59 1.39 2.38s.94 1.58 1.47 2.35l1.63 2.26.82 1.12.81 1 1.62 2.08c1.08 1.39 2.13 2.8 3.18 4.21q6.27 8.5 11.95 17.41A236.88 236.88 0 01201 129q-.9 2.76-1.77 5.55a30.42 30.42 0 00-5 11.12 80.64 80.64 0 00-1.85 12c-.36 4-.58 7.94-1 11.83-.21 1.93-.48 3.85-.87 5.71a30.64 30.64 0 01-1.73 5.38 66.9 66.9 0 01-5.67 10.14c-2.14 3.31-4.36 6.64-6.43 10.06-1 1.72-2 3.46-3 5.23s-1.83 3.58-2.72 5.32c-1.79 3.52-3.74 7-5.27 10.8a19.91 19.91 0 00-1.54 6.16 9 9 0 00.45 3.42 7.54 7.54 0 001.22 2.18 5.57 5.57 0 00.69.76 11.11 11.11 0 003.28 2.16c.3.14.61.26.92.39.5.18 1 .35 1.51.51a14.24 14.24 0 006.42.35 23.39 23.39 0 0010.95-5.71 45.94 45.94 0 007.94-9.18 56 56 0 005.47-10.31l.16-.39c.71-1.71 1.22-3.53 1.78-5.2l.16-.45a38.37 38.37 0 012.4-5.32 44.23 44.23 0 013.49-5.42c-.05.5-.13 1-.2 1.49a72.94 72.94 0 01-7.41 23.61c-.53 1-1.11 2-1.71 3a55.51 55.51 0 01-5.18 7.16l-.81.92a56.19 56.19 0 01-8.21 7.43 66.14 66.14 0 01-22.22 10.56c-1.32.34-2.66.65-4 .91a59.28 59.28 0 01-8.18 1.08 67.73 67.73 0 01-12.33-.39c-1.46-.17-2.9-.4-4.33-.69a68.39 68.39 0 01-7.71-2c-2-.6-3.87-1.4-5.78-2.18l-2.8-1.31c-.94-.44-1.84-.95-2.75-1.42a61.06 61.06 0 01-10.15-7 54.52 54.52 0 01-5.51-5.45c-1-1.14-1.94-2.31-2.84-3.53a50.77 50.77 0 01-3-4.52A66.27 66.27 0 0188.7 206a93.68 93.68 0 01-1.81-9.59 43 43 0 013.32 5.15 39.46 39.46 0 012.38 5.32c.06.15.11.3.16.45.57 1.67 1.08 3.49 1.78 5.2l.18.43a56.84 56.84 0 005.44 10.25 46 46 0 007.95 9.18 23.3 23.3 0 0011 5.71 14.24 14.24 0 006.42-.35c.5-.16 1-.33 1.51-.52.31-.12.61-.24.92-.38a11.19 11.19 0 003.27-2.16 6.37 6.37 0 00.7-.76 7.54 7.54 0 001.22-2.18 8.82 8.82 0 00.44-3.42 19.9 19.9 0 00-1.53-6.16c-1.53-3.8-3.49-7.28-5.26-10.8-.9-1.74-1.77-3.55-2.74-5.32s-2-3.51-3-5.23c-2.07-3.42-4.29-6.75-6.43-10.06a66.9 66.9 0 01-5.67-10.14 30.64 30.64 0 01-1.73-5.38c-.4-1.86-.65-3.78-.87-5.71-.42-3.89-.64-7.85-1-11.83a78.12 78.12 0 00-1.85-12 30.26 30.26 0 00-5-11.12c-.56-1.79-1.12-3.58-1.71-5.37q1.8-4.36 3.85-8.59zm-48.79 60.07a106.87 106.87 0 019.94-28.29q1.74-3.32 3.73-6.51c1.35-2.15 2.68-4.43 3.87-6.72a109.94 109.94 0 006-14.25 150.07 150.07 0 004.31-14.81c.78-3.39 1.48-6.76 2-10.18.86 1.68 1.64 3.45 2.41 5.19 1.43 3.3 2.76 6.69 4 10.09q1.57 4.2 3 8.45c.44 1.25.88 2.51 1.3 3.77.37 1.09.73 2.2 1.09 3.29s.74 2.26 1.1 3.39c.19.57.37 1.14.56 1.72l.09.31.2.24a27 27 0 014.65 10.09 77 77 0 011.98 11.53c.39 3.91.63 7.88 1.09 11.88a58.13 58.13 0 001 6c.18.79.38 1.57.62 2.34a33.22 33.22 0 001.32 3.58 70.8 70.8 0 006 10.57c2.18 3.33 4.4 6.59 6.45 9.94 1 1.67 2 3.36 3 5.08s1.81 3.46 2.76 5.24c1.85 3.52 3.83 7 5.31 10.5a17.09 17.09 0 011.43 5.31 6.05 6.05 0 01-.15 2 4.87 4.87 0 01-1.39 2.5 11.46 11.46 0 01-4.67 2.53 11.83 11.83 0 01-5.36.37 21.15 21.15 0 01-9.94-5.07 45.57 45.57 0 01-7.73-8.65 55.38 55.38 0 01-5.64-10.23c-.79-1.79-1.31-3.63-2-5.55a39.84 39.84 0 00-2.6-5.48 45 45 0 00-4.88-6.92 50.28 50.28 0 00-2.42-2.65l-.28-.19a48.5 48.5 0 00-2.44-2.32 47.63 47.63 0 00-6.76-5.09l-.22.38-.23.38a45.65 45.65 0 014.7 3.55 55.25 55.25 0 011.08 6.3c.27 2.22.42 4.46.52 6.69a40.08 40.08 0 01-.18 6.59c-.07.56-.16 1-.25 1.62s-.2 1.16-.27 1.74c-.14 1.16-.22 2.33-.25 3.5a53.28 53.28 0 001.46 13.84 45.59 45.59 0 005.19 13 31 31 0 009.74 10.35 27.07 27.07 0 003.17 1.74c1.09.52 2.1.92 3.16 1.36 2.1.88 4.21 1.74 6.31 2.57l12.68 4.83c2.11.81 4.2 1.65 6.21 2.61a21.66 21.66 0 012.9 1.64 6.07 6.07 0 011.86 1.88 7.14 7.14 0 010 3.41 5.72 5.72 0 01-1.88 2.94 5.52 5.52 0 01-3.27 1.15 17 17 0 01-1.85-.09l-1.89-.15a89.47 89.47 0 01-14.91-2.6 79.14 79.14 0 01-27-13.06c-1-.75-2-1.5-3-2.28s-2.08-1.55-3-2.31a57.21 57.21 0 01-5.39-5.27 102.09 102.09 0 01-9.25-11.89 80.23 80.23 0 01-7.19-13.18A46.76 46.76 0 0150 210.65a107.66 107.66 0 011.85-29.96z"/><path class="cls-2" d="M126.14 171.77l-.75.46a33 33 0 003.74 6.66 37.15 37.15 0 005.14 5.82 28 28 0 006.61 4.52 20.74 20.74 0 008.11 2.13 18.56 18.56 0 008.35-1.59 22.29 22.29 0 006.76-4.6 34.13 34.13 0 008.25-12.94l-.76-.46c-3.42 3.64-6.73 7.2-10.48 9.84s-7.76 4.32-11.88 4.15-8.3-2-12.14-4.62a76.94 76.94 0 01-10.95-9.37zM162 151a25.31 25.31 0 002.64 1.5 21.49 21.49 0 002.87 1.09 22.13 22.13 0 006.12 1 17.18 17.18 0 006.44-1.2 16.27 16.27 0 005.51-3.57 14.32 14.32 0 003.37-5.31 11.46 11.46 0 00.53-6.15l-.86-.22c-2.88 2.81-5 5.28-7.2 7.31a12.85 12.85 0 01-7.92 3.55 21.58 21.58 0 01-4.81-.22c-.81-.09-1.59-.33-2.4-.5s-1.59-.48-2.36-.83a29.84 29.84 0 01-8.84-5.62l-.74.49a19.41 19.41 0 003.2 4.83A22.22 22.22 0 00162 151zM111.81 148.82a14.74 14.74 0 005.17 4c.51.23 1 .46 1.53.67l1.59.45c.27.06.53.15.8.2l.81.11c.53.08 1.07.14 1.61.19a21.62 21.62 0 0016.53-6.44c.34-.35.67-.69 1-1.06s.61-.74.9-1.14a15.39 15.39 0 001.55-2.45l-.7-.53a30.29 30.29 0 01-9.18 5c-.79.29-1.6.48-2.4.69a23.09 23.09 0 01-7.23.34 14.14 14.14 0 01-4.24-1.29A15.66 15.66 0 01116 145a36.91 36.91 0 01-3.3-3.56c-1.07-1.32-2.15-2.77-3.31-4.31l-.87.17a13.37 13.37 0 00.43 6 15.67 15.67 0 002.86 5.52zM115.52 231.52c3.38 2.23 9.85 3.19 12.38-1.75a5.16 5.16 0 00.52-1.7c.64-4.78-4.59-10.71-4.59-10.71a23.22 23.22 0 00-12.26 5 18.75 18.75 0 00-2.67 2.54c1.65 3.54 4.84 5.46 6.62 6.62zM186.32 222.35a23.18 23.18 0 00-12.2-5s-5.12 5.8-4.6 10.57a5.06 5.06 0 00.54 1.84c2.52 4.94 9 4 12.37 1.75 1.78-1.16 5-3.08 6.63-6.58a19.09 19.09 0 00-2.74-2.58z"/></svg>