<svg id="Слой_1" data-name="Слой 1" xmlns="http://www.w3.org/2000/svg" viewBox="0 0 297.16 413.09"><defs><style>.cls-1{fill:none}.cls-2{fill:#1163a6}.cls-3{fill:#edc19c}.cls-5{fill:#eec29b}.cls-6{fill:#cca283}.cls-7{fill:#fddec8}</style></defs><path class="cls-1" d="M88.92 395.58a4.43 4.43 0 001.78-2.09 7.19 7.19 0 00.51-2.69 4.35 4.35 0 00-.77-2.77 3.71 3.71 0 00-2.06-1.3 11.29 11.29 0 00-2.89-.34 5.51 5.51 0 00-2.8.62c-.7.42-1 1.38-1 2.89v6.67l3.67-.05a7.33 7.33 0 003.56-.94zM155.51 333.74v-3a27.5 27.5 0 00-3.71.51 13.52 13.52 0 00-3.42 1.19 7.09 7.09 0 00-2.46 2 4.87 4.87 0 00-.93 3 3.63 3.63 0 001.27 2.82 4.29 4.29 0 002.74.91 7.88 7.88 0 003.51-.76 13 13 0 003-2.13c0-.41-.06-.84-.06-1.27v-1.39q.03-.5.06-1.88zM122.67 390a8.46 8.46 0 00-2.38-3.08 5.34 5.34 0 00-3.57-1.1 5.87 5.87 0 00-4.32 1.64 9.56 9.56 0 00-2.44 4.21 19.11 19.11 0 00-.76 5.46 23 23 0 00.85 6.34 11.74 11.74 0 002.63 4.92 5.94 5.94 0 004.55 1.92 5.79 5.79 0 004.28-1.69 9.6 9.6 0 002.23-4.22 21 21 0 00.68-5.34 27.17 27.17 0 00-.42-4.79 17.78 17.78 0 00-1.33-4.27zM90.61 400.22a8.12 8.12 0 00-4.32-1.16h-2.5c-.83 0-1.54.05-2.14.09v6.95c0 .68 0 1.3-.06 1.84a12.87 12.87 0 01-.17 1.39c.49 0 1.07.06 1.75.06h3.27a7.11 7.11 0 004.5-1.27 4.65 4.65 0 001.61-3.88 4.3 4.3 0 00-1.94-4.02zM60.8 389.53a6 6 0 00-1.8-2.75 4.84 4.84 0 00-3.17-1 6.72 6.72 0 00-4.92 1.89 10.06 10.06 0 00-2.55 5.74h13.03a12 12 0 00-.59-3.88zM216.08 341.49h1.19a6.06 6.06 0 004-1.33 5.15 5.15 0 001.61-4.21 5.64 5.64 0 00-1.56-4.27 5.8 5.8 0 00-4.21-1.5h-2.15q-1 0-1.92.09v8c0 .68 0 1.29-.06 1.84s-.08 1-.11 1.38c.45 0 1 .06 1.55.06s1.13-.04 1.66-.06zM97.63 333.74v-3a27.28 27.28 0 00-3.71.51 13.52 13.52 0 00-3.42 1.19 7.09 7.09 0 00-2.46 2 4.81 4.81 0 00-.94 3 3.63 3.63 0 001.28 2.82 4.27 4.27 0 002.74.91 7.88 7.88 0 003.51-.76 13 13 0 003-2.13c0-.41-.06-.84-.06-1.27v-1.39q.03-.5.06-1.88zM287.63 401.64v-3a27.28 27.28 0 00-3.71.51 13 13 0 00-3.42 1.19 7.06 7.06 0 00-2.46 2 4.81 4.81 0 00-.94 3 3.67 3.67 0 001.27 2.83 4.32 4.32 0 002.75.91 7.75 7.75 0 003.51-.77 13.34 13.34 0 003-2.12c0-.41-.06-.84-.06-1.27v-1.39q.03-.53.06-1.89zM247.2 330.54h2c.57 0 1.2 0 1.81-.08v-8.38-1.86c0-.53 0-1 .08-1.36-.68 0-1.45-.06-2.32-.06s-1.51 0-1.92.06a5.78 5.78 0 00-3.85 1.33 5.34 5.34 0 00-1.64 4.21 6.4 6.4 0 001.56 4.42 5.33 5.33 0 004.28 1.72z"/><path class="cls-2" d="M51.83 341.18c-.57 0-1.24.07-2 .08s-1.48.07-2.12.15a17.28 17.28 0 00.14-2V325.79l18.72-.17v9.9a21.73 21.73 0 01-.22 3.45 3.19 3.19 0 01-1.05 2 4.67 4.67 0 01-2.69.79v2.49h13.94v-3.11c-.6 0-1.28.07-2 .08s-1.46.07-2.1.15a15.22 15.22 0 00.14-2v-25.92a21.63 21.63 0 01.23-3.48 3.26 3.26 0 011.07-2 4.36 4.36 0 012.66-.77v-2.49H62.63v3.12l2-.12 2.09-.11c0 .57-.07 1.24-.11 2s-.06 1.57-.06 2.4v10.7H47.87v-9.23a21.8 21.8 0 01.22-3.48 3.23 3.23 0 011.08-2 4.34 4.34 0 012.66-.77v-2.49H37.91v3.12l2-.12 2.1-.11q-.06.85-.12 2c0 .77-.05 1.57-.05 2.4v23.54a21.58 21.58 0 01-.23 3.45 3.23 3.23 0 01-1 2 4.69 4.69 0 01-2.69.79v2.49h13.91zM91.89 328.7a22.58 22.58 0 00-5.44 1.81 11.56 11.56 0 00-4 3.14 7.09 7.09 0 00-1.53 4.53 6.73 6.73 0 002.06 5q2.07 2 6.14 2a11.09 11.09 0 004.59-1 13.89 13.89 0 004.13-2.92c.07.49.13 1 .17 1.42s.09 1 .17 1.58h9v-3q-.9 0-1.92.06l-2 .11c.07-.79.13-1.54.17-2.26s.06-1.36.06-1.92v-4-7.63q0-5.49-2.4-8c-1.61-1.7-4-2.54-7.27-2.54A17.75 17.75 0 0088 316a10 10 0 00-4.1 2.49 5.12 5.12 0 00-1.5 3.62 3.51 3.51 0 00.7 2.18 2.45 2.45 0 002.07.93 2.49 2.49 0 002.32-.93 3.27 3.27 0 00.68-1.78 5.11 5.11 0 00-.14-1.11 2.24 2.24 0 00-.6-1 4.43 4.43 0 012.27-1.95 7 7 0 012.94-.54 4.6 4.6 0 013.25 1 4.84 4.84 0 011.39 2.54 16.23 16.23 0 01.34 3.37v3.34a29.51 29.51 0 00-5.73.54zm5.77 9.59a13 13 0 01-3 2.13 7.88 7.88 0 01-3.51.76 4.27 4.27 0 01-2.74-.91 3.63 3.63 0 01-1.28-2.82 4.81 4.81 0 01.94-3 7.09 7.09 0 012.46-2 13.52 13.52 0 013.47-1.23 27.28 27.28 0 013.71-.51V337c-.11.45-.09.88-.05 1.29zM135.57 316h-25.8l-.23 9.11h2.66c0-2.3.37-3.88 1.1-4.75a4.32 4.32 0 013.48-1.3h3.11c-.07.71-.12 1.38-.14 2s0 1.28 0 2v12.61a26.64 26.64 0 01-.17 3.29 4 4 0 01-.84 2.2 3 3 0 01-2.38.79v2.38H129v-3l-3.62.17a15.34 15.34 0 00.2-2.12v-20.32h2.77a4.53 4.53 0 013.68 1.3c.71.87 1.09 2.45 1.13 4.75h2.66zM161.14 341.46c.08-.79.13-1.54.17-2.26s.06-1.36.06-1.92v-4-7.63q0-5.49-2.4-8c-1.6-1.7-4-2.54-7.27-2.54a17.79 17.79 0 00-5.83.9 10 10 0 00-4.1 2.49 5.12 5.12 0 00-1.5 3.62 3.46 3.46 0 00.71 2.18 2.43 2.43 0 002.06.93 2.48 2.48 0 002.32-.93 3.27 3.27 0 00.68-1.78 5.11 5.11 0 00-.14-1.11 2.22 2.22 0 00-.59-1 4.41 4.41 0 012.26-1.95 7 7 0 012.94-.54 4.58 4.58 0 013.25 1 4.84 4.84 0 011.39 2.54 15.58 15.58 0 01.34 3.37v3.34a29.51 29.51 0 00-5.77.59 22.65 22.65 0 00-5.43 1.81 11.6 11.6 0 00-4 3.14 7.09 7.09 0 00-1.53 4.53 6.7 6.7 0 002.07 5q2.05 2 6.14 2a11.08 11.08 0 004.58-1 13.77 13.77 0 004.13-2.92c.07.49.13 1 .17 1.42s.09 1 .17 1.58h9v-3q-.9 0-1.92.06zm-5.6-3.17a13 13 0 01-3 2.13 7.88 7.88 0 01-3.51.76 4.29 4.29 0 01-2.74-.91 3.63 3.63 0 01-1.27-2.82 4.87 4.87 0 01.93-3 7.09 7.09 0 012.46-2 13.52 13.52 0 013.42-1.19 27.5 27.5 0 013.71-.51V337c-.06.45-.04.88 0 1.29zM173.31 319.06l5.31-.29a100.92 100.92 0 01-1.33 13.16 28.52 28.52 0 01-2.15 7.44q-1.21 2.37-2.46 2.37a1 1 0 01-.51-.16 1.17 1.17 0 00.17-.49 3.34 3.34 0 00.06-.65 2.48 2.48 0 00-.65-1.61 2.63 2.63 0 00-2.12-.76 3.08 3.08 0 00-2.21.9 3.26 3.26 0 00-.79 2.32 3.21 3.21 0 001.3 2.66 5.65 5.65 0 003.57 1 6.38 6.38 0 004.49-1.75 13 13 0 003.12-4.84 35.47 35.47 0 001.89-7.1 83.34 83.34 0 001-8.6 4.84 4.84 0 01.68-2.78 2.72 2.72 0 012.38-1h4.75a15.65 15.65 0 00-.2 2v14.61c0 1.25-.1 2.34-.19 3.29a3.8 3.8 0 01-.85 2.2 3.1 3.1 0 01-2.41.79v2.38h12.68v-3l-3.62.17c.11-.71.18-1.42.22-2.12l.12-2.06v-12.48a31.62 31.62 0 01.14-3.28 3.71 3.71 0 01.85-2.21 3 3 0 012.34-.79V316h-25.58zM207.14 323v14.54a5.51 5.51 0 01-.76 3.31 3.24 3.24 0 01-2.63 1v2.38h15.56a11.37 11.37 0 004.69-1 8 8 0 003.45-2.86 8.13 8.13 0 001.3-4.72 8.37 8.37 0 00-1.1-4.25 7.21 7.21 0 00-3.82-3 20 20 0 00-7.58-1l-3.22.12v-4.3a18.14 18.14 0 01.14-2.38 3.12 3.12 0 01.85-1.87 3.24 3.24 0 012.4-.73V316h-12.67v3c.52 0 1.1-.07 1.72-.09s1.24 0 1.84-.08c-.08.68-.12 1.38-.14 2.09s-.03 1.42-.03 2.08zm5.86 17.08c0-.55.06-1.16.06-1.84v-8q.9-.06 1.92-.09h2.15a5.8 5.8 0 014.21 1.5 5.64 5.64 0 011.56 4.27 5.15 5.15 0 01-1.61 4.21 6.06 6.06 0 01-4 1.33h-2.86c-.59 0-1.1 0-1.55-.06.01-.31.05-.78.12-1.32zM240.21 342.76a27.46 27.46 0 003.09-3.67q.62-.85 1.38-2c.51-.78 1-1.53 1.53-2.27a12.32 12.32 0 011.39-1.72l3.45-.06v3.85a10.88 10.88 0 01-.51 3.59c-.34 1-1.21 1.44-2.6 1.44v2.38h12.39v-3l-3.62.17a17 17 0 00.19-2.12v-16.62a6.89 6.89 0 01.37-2.51 2.68 2.68 0 011.1-1.39 3.68 3.68 0 011.93-.45V316h-15.19a11.59 11.59 0 00-4.73 1 8.22 8.22 0 00-3.48 2.83 7.87 7.87 0 00-1.3 4.58 7.31 7.31 0 001.73 4.84 9.53 9.53 0 005.63 2.86 7.85 7.85 0 00-1.36.68 3.92 3.92 0 00-1.13 1.13l-2 2.66c-.79 1-1.51 1.93-2.15 2.74a10 10 0 01-1.93 1.93 3.61 3.61 0 01-2.2.7v2.38h4.86a4.53 4.53 0 003.16-1.57zm1.22-18.39a5.34 5.34 0 011.64-4.21 5.78 5.78 0 013.85-1.33q.62-.06 1.92-.06c.87 0 1.64 0 2.32.06 0 .38-.07.83-.08 1.36s0 1.15 0 1.86v8.38c-.61 0-1.21.07-1.81.08s-1.28 0-2 0a5.33 5.33 0 01-4.21-1.75 6.4 6.4 0 01-1.63-4.39zM8.49 375.69l4.41-.17h1.3l-.06 7.81a83.55 83.55 0 01-.84 12 46.41 46.41 0 01-2 8.32 18.69 18.69 0 01-2.3 4.8c-.8 1.06-1.49 1.55-2.1 1.55a1.29 1.29 0 01-1-.4 2 2 0 00.57-1.52 3.11 3.11 0 00-.77-2 2.7 2.7 0 00-2.35-.88 3.27 3.27 0 00-2.51 1.1 3.78 3.78 0 00-.84 2.55A3.56 3.56 0 001.67 412a7 7 0 004 1.13 6.32 6.32 0 004.22-1.61 12.82 12.82 0 003.25-4.64 36.86 36.86 0 002.27-7.18 79.31 79.31 0 001.38-9.23q.48-5.06.54-10.83a6.29 6.29 0 01.76-3.06 3 3 0 012.63-1l6.85-.11v27.95a20.62 20.62 0 01-.23 3.45 3.14 3.14 0 01-1.07 2 4.91 4.91 0 01-2.72.79v2.49h14v-3.11c-.6 0-1.28.06-2 .08s-1.45.07-2.09.14a17.26 17.26 0 00.14-1.95v-25.96a21.8 21.8 0 01.22-3.48 3.27 3.27 0 011.08-2 4.3 4.3 0 012.66-.77v-2.49H8.49zM63.51 407.38a13.14 13.14 0 01-3.28 1.56 11.18 11.18 0 01-3.25.53 7.76 7.76 0 01-5.15-1.64 9.13 9.13 0 01-2.83-4.64 24.2 24.2 0 01-.88-6.84l19.44-.35a16.23 16.23 0 00-1-6 10.66 10.66 0 00-2.56-4 10.48 10.48 0 00-3.79-2.29 13.61 13.61 0 00-4.5-.74 13.3 13.3 0 00-7.46 2.12 14.64 14.64 0 00-5 5.58 15.89 15.89 0 00-1.78 7.41 16.49 16.49 0 001.81 7.95 13 13 0 005 5.21 13.83 13.83 0 007.1 1.83 16.63 16.63 0 004.21-.59 15.05 15.05 0 004.5-2 13.92 13.92 0 003.91-4L66.14 405a10.38 10.38 0 01-2.63 2.38zm-12.64-19.72a6.72 6.72 0 014.92-1.89 4.84 4.84 0 013.17 1 6 6 0 011.84 2.75 12 12 0 01.59 3.87H48.32a10.06 10.06 0 012.55-5.73zM91.21 397.25a8 8 0 004.5-2.71 6.82 6.82 0 001.38-4.13 5.39 5.39 0 00-2.43-4.93 12.14 12.14 0 00-6.73-1.64H72.37v2.77c.49 0 1.06-.06 1.72-.08s1.27 0 1.84-.09a14.87 14.87 0 00-.17 1.53c0 .56-.06 1.19-.06 1.87v15.56a5.71 5.71 0 01-.73 3.31 3.22 3.22 0 01-2.66 1v2.38h16.41a13.22 13.22 0 005-.93 8.64 8.64 0 003.65-2.72 7.06 7.06 0 001.35-4.39 6.33 6.33 0 00-1.86-4.64 9.2 9.2 0 00-5.65-2.16zm-9.56-7.35c0-1.51.34-2.47 1-2.89a5.51 5.51 0 012.8-.62 11.29 11.29 0 012.89.34 3.71 3.71 0 012.06 1.3 4.35 4.35 0 01.77 2.77 7.19 7.19 0 01-.51 2.69 4.43 4.43 0 01-1.78 2.09 7.33 7.33 0 01-3.6.94l-3.67.05zm9.25 18.19a7.11 7.11 0 01-4.5 1.27h-3.27c-.72 0-1.26 0-1.75-.06a12.87 12.87 0 00.17-1.39c0-.54.06-1.16.06-1.84v-6.95c.6 0 1.31-.07 2.14-.09s1.67 0 2.5 0a8.12 8.12 0 014.32 1.16 4.3 4.3 0 011.9 4 4.65 4.65 0 01-1.57 3.9zM124 384.83a14.41 14.41 0 00-7.24-1.84 13.15 13.15 0 00-7.18 2 14.75 14.75 0 00-5.13 5.57 17 17 0 00-1.89 8.12 14.66 14.66 0 001.89 7.5 13.47 13.47 0 005.13 5.06 14.49 14.49 0 007.24 1.81 13.23 13.23 0 007.27-2 14.44 14.44 0 005.06-5.6 17 17 0 001.87-8 14.57 14.57 0 00-1.9-7.5 13.74 13.74 0 00-5.12-5.12zm-.28 19.52a9.6 9.6 0 01-2.23 4.22 5.79 5.79 0 01-4.28 1.69 5.94 5.94 0 01-4.55-1.92 11.74 11.74 0 01-2.63-4.92 23 23 0 01-.85-6.34 19.11 19.11 0 01.76-5.46 9.56 9.56 0 012.44-4.21 5.87 5.87 0 014.32-1.64 5.34 5.34 0 013.57 1.1 8.46 8.46 0 012.38 3.08 17.78 17.78 0 011.33 4.27 27.17 27.17 0 01.42 4.79 21 21 0 01-.66 5.34zM150.84 386.9l3.17-.17a15.75 15.75 0 00-.2 2.09v2.09l-.06 6.45a14 14 0 01-2.35.49 21 21 0 01-2.29.14q-3.06 0-4.41-1.67a7.38 7.38 0 01-1.36-4.78 8.63 8.63 0 01.68-4.19 2.64 2.64 0 012.43-1.08v-2.37H134v3l3.56-.17c-.07.68-.13 1.43-.17 2.26s-.05 1.75-.05 2.77q.1 4.75 2.57 7.33c1.64 1.72 4.14 2.57 7.5 2.57a23 23 0 003-.22 31.1 31.1 0 003.25-.62v2.71c0 1.25 0 2.34-.14 3.28a4 4 0 01-.82 2.21 3 3 0 01-2.38.79v2.38H163v-3l-3.57.17c.08-.72.14-1.42.17-2.12s.06-1.39.06-2.07v-12.62c0-1.24.1-2.33.2-3.28a3.89 3.89 0 01.82-2.2 2.9 2.9 0 012.32-.8v-2.37h-12.16zM192.54 407.49a19.7 19.7 0 01-1.55-1.84c-.44-.58-.75-1-.94-1.21l-4-5.09a17.25 17.25 0 00-1.69-2 7.09 7.09 0 00-1.87-1.27l4.18-4.41a30.6 30.6 0 012.21-2.21 16.68 16.68 0 012.92-2.12 9.15 9.15 0 013.59-1.16v-2.28h-11.11v2.94l3.57-.11a11.24 11.24 0 00-1.36 1.19l-1.59 1.58-5.9 6.39h-2.37v-3.34a31.88 31.88 0 01.14-3.28 3.76 3.76 0 01.85-2.2 3 3 0 012.35-.8v-2.37h-12.66v3c.53 0 1.11-.07 1.75-.09s1.27 0 1.87-.08a15.75 15.75 0 00-.2 2.09V403.53a28.45 28.45 0 01-.17 3.28 4.13 4.13 0 01-.85 2.21 3 3 0 01-2.38.79v2.38h12.68v-3c-.57 0-1.16.07-1.79.08s-1.23.05-1.84.09a15.49 15.49 0 00.2-2.12v-2.07l.06-6.45 1.92-.11a21.8 21.8 0 011.61 2c.63.86 1.31 1.84 2.07 2.91s1.58 2.22 2.49 3.42c1.09 1.44 2.1 2.66 3 3.68a4 4 0 003 1.53h5.6v-2.38a3.32 3.32 0 01-1.89-.68 11.92 11.92 0 01-1.9-1.6zM218.12 386.9c.53 0 1.1-.07 1.72-.09s1.24 0 1.84-.08c-.05.43-.07.89-.11 1.34l-12.9 14.78v-10.3c0-1.24.1-2.33.2-3.28a3.89 3.89 0 01.82-2.2 3 3 0 012.37-.8v-2.37h-12.67v3c.53 0 1.11-.07 1.75-.09s1.27 0 1.87-.08a15.75 15.75 0 00-.2 2.09V403.53a28.65 28.65 0 01-.16 3.28 4.13 4.13 0 01-.85 2.21 3 3 0 01-2.38.79v2.38H212v-3c-.53 0-1.11.07-1.73.08s-1.23.05-1.84.09c.07-.65.12-1.3.16-1.94l12.86-14.91v11a28.45 28.45 0 01-.17 3.28 4.13 4.13 0 01-.85 2.21 3 3 0 01-2.38.79v2.38h12.68v-3c-.53 0-1.12.07-1.76.08s-1.26.05-1.87.09c.08-.72.14-1.42.17-2.12s.06-1.39.06-2.07l.06-12.62a31.88 31.88 0 01.14-3.28 3.76 3.76 0 01.85-2.2 3 3 0 012.35-.8v-2.35h-12.61zM253.88 386.9l3.62-.17a14.23 14.23 0 00-.2 2.09v7.41h-12.53v-3.68c0-1.24.1-2.33.19-3.28a3.89 3.89 0 01.83-2.2 3 3 0 012.37-.8v-2.37h-12.67v3l3.56-.17c-.07.68-.12 1.37-.14 2.09s0 1.42 0 2.09v12.62a26.36 26.36 0 01-.17 3.28 4 4 0 01-.85 2.21 3 3 0 01-2.37.79v2.38h12.62v-3l-3.57.17c.08-.72.13-1.42.17-2.12s.06-1.39.06-2.07v-5.85l12.46-.13v4.34a31.62 31.62 0 01-.14 3.28 3.82 3.82 0 01-.82 2.21 3 3 0 01-2.37.79v2.38h12.67v-3l-3.62.17a17.24 17.24 0 00.2-2.12v-14.69c0-1.24.05-2.33.14-3.28a3.83 3.83 0 01.85-2.2 3 3 0 012.35-.8v-2.37h-12.64zM295.24 409.25l-2 .11c.07-.79.13-1.55.17-2.26s.05-1.36.05-1.93v-4V393.53q0-5.47-2.41-8t-7.19-2.53a17.68 17.68 0 00-5.82.91 10 10 0 00-4.11 2.49 5.09 5.09 0 00-1.49 3.62 3.53 3.53 0 00.7 2.18 2.44 2.44 0 002.07.93 2.49 2.49 0 002.32-.93 3.3 3.3 0 00.68-1.78 5.11 5.11 0 00-.14-1.11 2.24 2.24 0 00-.6-1 4.51 4.51 0 012.26-2 7.15 7.15 0 012.95-.53 4.6 4.6 0 013.25 1 4.81 4.81 0 011.39 2.54 16.23 16.23 0 01.34 3.37V396a28.86 28.86 0 00-5.78.59 22.65 22.65 0 00-5.43 1.81 11.35 11.35 0 00-4 3.14 7.05 7.05 0 00-1.53 4.53 6.73 6.73 0 002.06 5q2.07 2 6.14 2a11 11 0 004.58-1 14 14 0 004.14-2.91c.07.49.13 1 .17 1.41s.09 1 .17 1.59h9v-3q-.92.03-1.94.09zm-7.58-3.06a13.34 13.34 0 01-3 2.12 7.75 7.75 0 01-3.51.77 4.32 4.32 0 01-2.75-.91 3.67 3.67 0 01-1.27-2.83 4.81 4.81 0 01.94-3 7.06 7.06 0 012.46-2 13 13 0 013.42-1.19 27.28 27.28 0 013.71-.51V404.92c-.06.43-.04.86 0 1.27z"/><path class="cls-3" d="M121.15 251.06l-3-1.39c-1-.47-2-1-2.93-1.52a65.27 65.27 0 01-10.9-7.49 58.66 58.66 0 01-9-9.71 67.3 67.3 0 01-11-23.9 102.72 102.72 0 01-2.59-16.48l-1.08-1a59.39 59.39 0 012.16 11.29 43.92 43.92 0 01.14 7c0 .58-.14 1.26-.2 1.76s-.13 1.07-.18 1.61c-.09 1.08-.12 2.18-.11 3.27a50.11 50.11 0 007 24.93 30.28 30.28 0 008.62 9.21 21.14 21.14 0 002.72 1.58c.93.47 2 1 3 1.43l6.16 2.82 6.16 2.85c2 1 4.09 2 6.12 3a62.24 62.24 0 016 3.45 18.77 18.77 0 012.73 2.16 6.64 6.64 0 011.43 1.93 14 14 0 004 .58 15.93 15.93 0 003.94-.2 3.16 3.16 0 002.43-2.39 6.64 6.64 0 00.15-1.9 7.93 7.93 0 00-.09-1 5.12 5.12 0 00-.22-.92 14.47 14.47 0 00-4.82-6.07 69.63 69.63 0 01-10.36-2.55c-2.21-.67-4.24-1.52-6.28-2.35zM212.16 211a68.23 68.23 0 01-5 12.2 60.89 60.89 0 01-7.41 11 60 60 0 01-9.69 9 67.27 67.27 0 01-11.29 6.8 66.2 66.2 0 01-12.36 4.57q-3.14.83-6.35 1.38a14.44 14.44 0 00-4.84 6.09 6.19 6.19 0 00-.23.92c-.05.32-.07.65-.09 1a6.64 6.64 0 00.16 1.9 3.15 3.15 0 002.43 2.39 15.85 15.85 0 003.93.2 14 14 0 004-.58 6.3 6.3 0 011.43-1.93 18.69 18.69 0 012.72-2.16 63.49 63.49 0 016-3.45c2-1 4.08-2 6.13-3l6.16-2.85 6.15-2.82c1-.48 2.09-1 3-1.43a20.37 20.37 0 002.71-1.58 30 30 0 008.62-9.21 50.12 50.12 0 007-24.93c0-1.09 0-2.19-.12-3.27 0-.54-.1-1.07-.17-1.61s-.16-1.18-.2-1.76a42.77 42.77 0 01.14-7 58.62 58.62 0 012.16-11.29c-.43.4-.85.81-1.27 1.23-.19 2.48-.46 5-.83 7.44a87 87 0 01-2.89 12.75z"/><path d="M98.9 228.27a54.18 54.18 0 008.35 9 61.06 61.06 0 0010.15 7c.91.47 1.81 1 2.74 1.43l2.81 1.3c1.91.78 3.81 1.58 5.78 2.19a62.88 62.88 0 0012 2.74 67.72 67.72 0 0012.33.38 63.69 63.69 0 0012.18-2 66 66 0 0022.21-10.56 54.87 54.87 0 009-8.34 56.76 56.76 0 006.91-10.17 73.09 73.09 0 007.4-23.61c.06-.42.11-.85.17-1.27a42.75 42.75 0 00-3.38 5.26 37.5 37.5 0 00-2.38 5.3c-.63 1.79-1.17 3.79-1.93 5.66a56.36 56.36 0 01-5.62 10.71 46.11 46.11 0 01-8 9.21 23.45 23.45 0 01-11 5.75 14.09 14.09 0 01-6.48-.35 19 19 0 01-3-1.16 10.46 10.46 0 01-2.78-1.93 7.8 7.8 0 01-1.95-3 9.13 9.13 0 01-.47-3.47 20.07 20.07 0 011.54-6.22c1.54-3.83 3.48-7.31 5.27-10.83.88-1.74 1.77-3.54 2.72-5.32s2-3.51 3-5.23c2.07-3.44 4.29-6.76 6.43-10.08a67.89 67.89 0 005.64-10.11 31.11 31.11 0 001.71-5.35 52.3 52.3 0 00.87-5.69c.42-3.87.63-7.84 1-11.82a79.9 79.9 0 011.84-12 30.78 30.78 0 015-11.15c.6-1.93 1.22-3.85 1.84-5.76a237.9 237.9 0 00-18.2-34q-5.7-8.89-11.95-17.4c-1.05-1.42-2.11-2.82-3.18-4.22L165.93 71l-.82-1-.82-1.12-1.63-2.27c-.54-.76-1-1.57-1.47-2.35s-1-1.56-1.39-2.38l-1.26-2.44A111.28 111.28 0 01151 39.1c-.78-2.77-1.45-5.57-2.06-8.37-.91 4.22-2 8.42-3.26 12.56-.61 2.08-1.35 4.13-2 6.18-.37 1-.78 2-1.17 3.05l-.6 1.53-.67 1.49a67.34 67.34 0 01-6.31 11.6l-2 2.72-2 2.49c-1.3 1.67-2.57 3.36-3.84 5.06q-3.76 5.1-7.33 10.36-7.14 10.5-13.29 21.6-3.08 5.55-5.81 11.25-2 4.06-3.74 8.21.91 2.79 1.79 5.61a30.61 30.61 0 015 11.15 78.68 78.68 0 011.85 12c.36 4 .58 8 1 11.82.22 1.93.47 3.85.87 5.69a33 33 0 001.71 5.35 68.86 68.86 0 005.65 10.11c2.14 3.32 4.35 6.64 6.42 10.08q1.56 2.58 3 5.23c.95 1.78 1.84 3.58 2.72 5.32 1.78 3.52 3.72 7 5.26 10.83a20.07 20.07 0 011.54 6.22 9.12 9.12 0 01-.46 3.47 7.92 7.92 0 01-2 3 10.5 10.5 0 01-2.79 1.93 18.84 18.84 0 01-3 1.16 14.14 14.14 0 01-6.49.35 23.37 23.37 0 01-11-5.75 46.49 46.49 0 01-8-9.21 56.9 56.9 0 01-5.61-10.71c-.77-1.87-1.31-3.87-1.93-5.66a39.92 39.92 0 00-2.38-5.3 44.56 44.56 0 00-3.2-5A90.22 90.22 0 0088.7 206a62.82 62.82 0 0010.2 22.27zm56.24-86.52a30.55 30.55 0 008.92 5.41c.76.34 1.58.52 2.34.78s1.57.39 2.37.47a22 22 0 004.72.17 12.57 12.57 0 007.65-3.45c2.2-1.95 4.3-4.31 7.43-7l1 .24a11.12 11.12 0 01-.3 6.3 13.78 13.78 0 01-3.36 5.45 16.87 16.87 0 01-5.65 3.65 17.53 17.53 0 01-6.58 1.2 21.79 21.79 0 01-11.76-3.72 21 21 0 01-7.59-8.93zm-31.86 13.05a16.41 16.41 0 01-11.75-5.72 15.13 15.13 0 01-2.88-5.64 12.78 12.78 0 01-.24-6.15l1-.19c1.27 1.51 2.41 2.92 3.52 4.2a38.83 38.83 0 003.32 3.42 15.47 15.47 0 003.49 2.48 13.53 13.53 0 004.1 1.27 22.54 22.54 0 004.72.08 22 22 0 002.38-.34c.79-.19 1.6-.36 2.38-.63a31.72 31.72 0 009.25-4.84l.8.61a20.74 20.74 0 01-8.08 8.49 21.54 21.54 0 01-12.01 2.96zM129 179a32.25 32.25 0 01-3.64-6.77l.85-.53a82.8 82.8 0 0011.1 9.16c3.83 2.54 7.94 4.35 12 4.49s8-1.38 11.66-4 7.09-6.07 10.63-9.64l.85.52a33 33 0 01-8.09 13.15 22.55 22.55 0 01-6.82 4.71 19 19 0 01-8.51 1.62 20.81 20.81 0 01-8.24-2.18 27.86 27.86 0 01-6.65-4.61A36.13 36.13 0 01129 179z" fill="#218ece"/><path class="cls-2" d="M100.64 120.62q2.74-5.7 5.81-11.25 6.14-11.09 13.29-21.6 3.56-5.26 7.33-10.36c1.27-1.7 2.54-3.39 3.84-5.06l2-2.49 2-2.72a67.34 67.34 0 006.31-11.6l.67-1.49.6-1.53c.39-1 .8-2 1.17-3.05.7-2 1.44-4.1 2-6.18 1.28-4.14 2.35-8.34 3.26-12.56.61 2.8 1.28 5.6 2.06 8.37a111.28 111.28 0 007.59 20.33l1.26 2.44c.4.82.93 1.59 1.39 2.38s.93 1.59 1.47 2.35l1.63 2.27.82 1.12.82 1 1.61 2.08c1.07 1.4 2.13 2.8 3.18 4.22q6.27 8.49 11.95 17.4a237.9 237.9 0 0118.2 34q1-3.14 2.11-6.24a250.11 250.11 0 00-16.37-30.22c-3.79-6.06-7.85-12-12.1-17.71q-1.59-2.15-3.23-4.28l-1.65-2.12-.83-1.06-.75-1-1.51-2.06c-.48-.69-.89-1.45-1.34-2.17s-.92-1.43-1.3-2.21l-1.18-2.28a106.83 106.83 0 01-7.26-19.48c-1-3.36-1.77-6.77-2.51-10.19s-1.37-6.89-1.84-10.28L148.71 0l-2.13 17.38c-.52 4.09-1.3 8.28-2.18 12.38S142.48 38 141.24 42c-.58 2-1.29 4-2 6-.36 1-.76 2-1.13 2.92l-.57 1.46-.54 1.33a64.26 64.26 0 01-5.88 10.84L129.29 67l-2 2.54c-1.32 1.7-2.62 3.42-3.9 5.14q-3.83 5.18-7.44 10.52c-4.82 7.11-9.34 14.43-13.5 22q-3.12 5.64-5.92 11.47c-.61 1.26-1.2 2.53-1.79 3.81q1.09 3.18 2.15 6.37 1.78-4.16 3.75-8.23zM166.41 254.54a66.2 66.2 0 0012.36-4.54 67.27 67.27 0 0011.31-6.79 60 60 0 009.69-9 60.89 60.89 0 007.41-11 68.23 68.23 0 005-12.2A87 87 0 00215 198.2c.37-2.47.64-5 .83-7.44-.45.45-.9.9-1.34 1.36a48 48 0 00-3.48 4.19c-.06.42-.11.85-.17 1.27a73.09 73.09 0 01-7.4 23.61 56.76 56.76 0 01-6.91 10.17 54.87 54.87 0 01-9 8.34 66 66 0 01-22.21 10.56 63.69 63.69 0 01-12.18 2 67.72 67.72 0 01-12.33-.38 62.88 62.88 0 01-12-2.74c-2-.61-3.87-1.41-5.78-2.19l-2.81-1.3c-.93-.44-1.83-1-2.74-1.43a61.06 61.06 0 01-10.15-7 54.18 54.18 0 01-8.35-9A62.82 62.82 0 0188.7 206a90.22 90.22 0 01-1.78-9.41 50 50 0 00-3.67-4.42c-.49-.52-1-1-1.52-1.55a102.72 102.72 0 002.59 16.48 67.3 67.3 0 0011 23.9 58.66 58.66 0 009 9.71 65.27 65.27 0 0010.9 7.49c1 .5 1.93 1 2.93 1.52l3 1.39c2 .83 4.07 1.68 6.18 2.33a69.63 69.63 0 0010.36 2.55l1.31.2c.4.05.8.13 1.2.17a70.92 70.92 0 0013.19.4c1.8-.11 3.59-.33 5.37-.6l1.3-.19q3.21-.6 6.35-1.43z"/><path class="cls-5" d="M53.9 224.88A81 81 0 0061.07 238a101.09 101.09 0 009.23 11.89 56.91 56.91 0 005.31 5.23c.9.75 2 1.52 3 2.3s2 1.54 3 2.29a79.57 79.57 0 0027 13.07 89.27 89.27 0 0014.89 2.62l1.89.16a17.07 17.07 0 001.85.09 5.43 5.43 0 003.23-1.13 5.76 5.76 0 001.88-2.9 7.51 7.51 0 000-3.34 6 6 0 00-1.89-1.91 21.6 21.6 0 00-2.91-1.61c-2-.94-4.11-1.77-6.22-2.56l-6.33-2.33-6.35-2.4c-2.12-.83-4.22-1.69-6.33-2.55-1.06-.45-2.07-.84-3.17-1.37A26 26 0 0196 251.8a31.14 31.14 0 01-9.82-10.42A45.32 45.32 0 0181 228.3a53.21 53.21 0 01-1.44-13.89c0-1.17.12-2.34.27-3.52.07-.58.16-1.17.27-1.75s.19-1 .26-1.6a40.92 40.92 0 00.19-6.57A73.25 73.25 0 0079 188a45.93 45.93 0 00-4.64-3.51l.25-.43.26-.43a50.49 50.49 0 019.37 7.53 47.2 47.2 0 017.32 9.59 38.82 38.82 0 012.62 5.48c.73 1.93 1.26 3.76 2 5.55a55.18 55.18 0 005.65 10.2 45.27 45.27 0 007.71 8.61 21 21 0 009.87 5 11.66 11.66 0 005.29-.36 11.38 11.38 0 004.59-2.5 5.28 5.28 0 001.49-4.34 16.94 16.94 0 00-1.42-5.25c-1.48-3.52-3.45-7-5.31-10.48l-2.77-5.23c-.94-1.71-1.93-3.4-3-5.07-2-3.35-4.26-6.61-6.46-9.94a72 72 0 01-6-10.6 36.68 36.68 0 01-2-6 58.68 58.68 0 01-1-6.06c-.47-4-.71-8-1.1-11.88a76.58 76.58 0 00-1.72-11.36 26.71 26.71 0 00-4.62-10l-.21-.28-.12-.35c-1.3-4.06-2.64-8.13-4-12.17-1-2.82-2-5.65-3-8.44-1.27-3.4-2.59-6.77-4-10.08-.67-1.52-1.36-3-2.09-4.53a151.44 151.44 0 01-6.3 24.33 110.45 110.45 0 01-6.07 14.28c-1.18 2.3-2.54 4.57-3.88 6.74l-1.93 3.21-1.78 3.29a106.11 106.11 0 00-9.92 28.22 107.2 107.2 0 00-1.93 29.9 47.13 47.13 0 003.75 14.24zm69.93-7.52s6.59 7.47 4.07 12.41-9 4-12.38 1.76c-1.77-1.17-5-3.09-6.62-6.59a23.24 23.24 0 0114.93-7.58zM195.87 158c-.39 3.91-.64 7.87-1.1 11.88a58.74 58.74 0 01-1 6.06 35.71 35.71 0 01-1.95 6 72 72 0 01-6 10.6c-2.19 3.33-4.4 6.59-6.45 9.94-1 1.67-2 3.36-3 5.07l-2.76 5.23c-1.86 3.52-3.84 7-5.32 10.48a17.51 17.51 0 00-1.42 5.25 5.31 5.31 0 001.49 4.34 11.36 11.36 0 004.6 2.5 11.62 11.62 0 005.28.36 21 21 0 009.88-5 44.88 44.88 0 007.7-8.61 55.18 55.18 0 005.65-10.2c.79-1.79 1.32-3.62 2.05-5.55a39.9 39.9 0 012.61-5.48 47.56 47.56 0 017.32-9.59 50.82 50.82 0 019.37-7.53l.26.43.26.43a45 45 0 00-4.65 3.51 74.19 74.19 0 00-1.48 12.88 42.1 42.1 0 00.2 6.57c.07.55.16 1 .26 1.6s.19 1.17.26 1.75a35 35 0 01.27 3.52 53.2 53.2 0 01-1.43 13.89 45.63 45.63 0 01-5.2 13.08 31 31 0 01-9.81 10.42 25.4 25.4 0 01-3.2 1.75c-1.1.53-2.1.92-3.17 1.37-2.1.86-4.21 1.72-6.32 2.55l-6.36 2.4-6.35 2.36c-2.11.79-4.2 1.62-6.22 2.56a22.9 22.9 0 00-2.91 1.61 6 6 0 00-1.89 1.91 7.36 7.36 0 00.06 3.34 5.76 5.76 0 001.88 2.9 5.43 5.43 0 003.23 1.13 17 17 0 001.84-.09l1.89-.16a89.09 89.09 0 0014.89-2.62 79.39 79.39 0 0027-13.07c1-.75 2-1.51 3-2.29s2.08-1.55 3-2.3a58.26 58.26 0 005.32-5.23 101 101 0 009.2-11.95 81.84 81.84 0 007.18-13.15 47.13 47.13 0 003.76-14.24 107.58 107.58 0 00-1.93-29.9 106.48 106.48 0 00-9.93-28.22l-1.79-3.29L232 146c-1.34-2.17-2.69-4.44-3.87-6.74a109.13 109.13 0 01-6.07-14.26 152.5 152.5 0 01-6.23-24.32c-.73 1.48-1.42 3-2.08 4.53a178.97 178.97 0 00-4 10.08q-1.33 3.6-2.6 7.25c-1.56 4.43-3 8.89-4.47 13.36l-.11.35-.22.28a26.7 26.7 0 00-4.61 10 75.31 75.31 0 00-1.87 11.47zm-13.44 73.56c-3.37 2.22-9.85 3.19-12.37-1.76s4.06-12.41 4.06-12.41a23.24 23.24 0 0114.94 7.58c-1.65 3.47-4.85 5.39-6.63 6.56z"/><path class="cls-6" d="M51.28 226a84.67 84.67 0 007.57 13.52 101.8 101.8 0 009.64 12.07 58.63 58.63 0 005.64 5.41c1.07.86 2.07 1.53 3.09 2.32s2 1.52 3.09 2.26a80.72 80.72 0 0013.32 7.8 78.61 78.61 0 0014.57 5 91 91 0 0015.19 2.27l1.92.11a18.12 18.12 0 002 0 6.41 6.41 0 003.8-1.46 5.86 5.86 0 002-3.49 5.51 5.51 0 00-.52-3.31c0-.13-.07-.26-.11-.39a10.71 10.71 0 003.77 1 20.62 20.62 0 002.07.17 7.58 7.58 0 002.16-.18 4.3 4.3 0 002-1.07 4.14 4.14 0 001.08-2 7.28 7.28 0 00.16-2.17c0-.36-.06-.7-.11-1.06a6.47 6.47 0 00-.28-1.07 13.51 13.51 0 00-4.32-5.59l-1.31-.2a14.47 14.47 0 014.82 6.07 5.12 5.12 0 01.22.92 7.93 7.93 0 01.09 1 6.64 6.64 0 01-.15 1.9 3.16 3.16 0 01-2.43 2.39 15.93 15.93 0 01-3.94.2 14 14 0 01-4-.58 6.64 6.64 0 00-1.43-1.93 18.77 18.77 0 00-2.73-2.16 62.24 62.24 0 00-6-3.45c-2-1-4.08-2-6.12-3l-6.03-2.88-6.16-2.82c-1-.48-2.08-1-3-1.43a21.14 21.14 0 01-2.72-1.58 30.28 30.28 0 01-8.62-9.21 50.11 50.11 0 01-7-24.93c0-1.09 0-2.19.11-3.27.05-.54.1-1.07.18-1.61s.16-1.18.2-1.76a43.92 43.92 0 00-.14-7 59.39 59.39 0 00-2.16-11.29l1.08 1c.51.51 1 1 1.52 1.55a50 50 0 013.67 4.42 44.56 44.56 0 013.2 5 39.92 39.92 0 012.38 5.3c.62 1.79 1.16 3.79 1.93 5.66a56.9 56.9 0 005.53 10.79 46.49 46.49 0 008 9.21 23.37 23.37 0 0011 5.75 14.14 14.14 0 006.49-.35 18.84 18.84 0 003-1.16 10.5 10.5 0 002.79-1.93 7.92 7.92 0 002-3 9.12 9.12 0 00.46-3.47 20.07 20.07 0 00-1.54-6.22c-1.54-3.83-3.48-7.31-5.26-10.83-.88-1.74-1.77-3.54-2.72-5.32s-2-3.51-3-5.23c-2.07-3.44-4.28-6.76-6.42-10.08a68.86 68.86 0 01-5.65-10.11 33 33 0 01-1.71-5.35c-.4-1.84-.65-3.76-.87-5.69-.41-3.87-.63-7.84-1-11.82a78.68 78.68 0 00-1.85-12 30.61 30.61 0 00-5-11.15q-.87-2.82-1.79-5.61-1.05-3.2-2.15-6.37c-1-2.86-2-5.71-3-8.55-1.28-3.44-2.62-6.87-4.09-10.27-.73-1.7-1.5-3.39-2.33-5.07a43.76 43.76 0 00-2.86-5l-3-4.33-.65 5.25a149.4 149.4 0 01-2.71 14.77A147.31 147.31 0 0172 123.73a107.37 107.37 0 01-5.79 13.81c-1.13 2.23-2.37 4.34-3.68 6.5l-2 3.35-1.82 3.43a109.44 109.44 0 00-9.94 29.27 111 111 0 00-1.65 30.82A50 50 0 0051.28 226zm.79-45.26A106.11 106.11 0 0162 152.52l1.79-3.29 1.92-3.23c1.34-2.17 2.7-4.44 3.88-6.74A110.45 110.45 0 0075.66 125a151.44 151.44 0 006.23-24.32c.73 1.48 1.42 3 2.09 4.53 1.43 3.31 2.75 6.68 4 10.08 1 2.79 2 5.62 3 8.44 1.4 4 2.74 8.11 4 12.17l.12.35.21.28a26.71 26.71 0 014.62 10 76.58 76.58 0 011.93 11.47c.39 3.91.63 7.87 1.1 11.88a58.68 58.68 0 001 6.06 36.68 36.68 0 002 6 72 72 0 006 10.6c2.2 3.33 4.41 6.59 6.46 9.94 1 1.67 2 3.36 3 5.07l2.77 5.23c1.86 3.52 3.83 7 5.31 10.48a16.94 16.94 0 011.42 5.25 5.28 5.28 0 01-1.49 4.34 11.38 11.38 0 01-4.59 2.5 11.66 11.66 0 01-5.29.36 21 21 0 01-9.87-5 45.27 45.27 0 01-7.71-8.61 55.18 55.18 0 01-5.65-10.2c-.78-1.79-1.31-3.62-2-5.55a38.82 38.82 0 00-2.62-5.48 47.2 47.2 0 00-7.32-9.59 50.49 50.49 0 00-9.37-7.53l-.26.43-.25.43A45.93 45.93 0 0179 188a73.25 73.25 0 011.51 13 40.92 40.92 0 01-.19 6.57c-.07.55-.16 1-.26 1.6s-.2 1.17-.27 1.75c-.15 1.18-.23 2.35-.27 3.52A53.21 53.21 0 0081 228.3a45.32 45.32 0 005.19 13.08A31.14 31.14 0 0096 251.8a26 26 0 003.19 1.75c1.1.53 2.11.92 3.17 1.37 2.11.86 4.21 1.72 6.33 2.55l6.35 2.4 6.35 2.36c2.11.79 4.2 1.62 6.22 2.56a21.6 21.6 0 012.91 1.61 6 6 0 011.89 1.91 7.51 7.51 0 010 3.34 5.76 5.76 0 01-1.88 2.9 5.43 5.43 0 01-3.23 1.13 17.07 17.07 0 01-1.85-.09l-1.89-.16a89.27 89.27 0 01-14.89-2.62 79.57 79.57 0 01-27-13.07c-1-.75-2-1.51-3-2.29s-2.09-1.55-3-2.3a56.91 56.91 0 01-5.31-5.23A101.09 101.09 0 0161.07 238a81 81 0 01-7.17-13.15 47.13 47.13 0 01-3.76-14.24 107.2 107.2 0 011.93-29.87zM199 134.44a30.78 30.78 0 00-5 11.15 79.9 79.9 0 00-1.84 12c-.37 4-.58 8-1 11.82a52.3 52.3 0 01-.87 5.69 31.11 31.11 0 01-1.71 5.35A67.89 67.89 0 01183 190.6c-2.14 3.32-4.36 6.64-6.43 10.08q-1.54 2.58-3 5.23c-1 1.78-1.84 3.58-2.72 5.32-1.79 3.52-3.73 7-5.27 10.83a20.07 20.07 0 00-1.54 6.22 9.13 9.13 0 00.47 3.47 7.8 7.8 0 001.95 3 10.46 10.46 0 002.78 1.93 19 19 0 003 1.16 14.09 14.09 0 006.48.35 23.45 23.45 0 0011-5.75 46.11 46.11 0 008-9.21 56.36 56.36 0 005.62-10.71c.76-1.87 1.3-3.87 1.93-5.66a37.5 37.5 0 012.38-5.3 42.75 42.75 0 013.38-5.26 48 48 0 013.48-4.19c.44-.46.89-.91 1.34-1.36s.84-.83 1.27-1.23a58.62 58.62 0 00-2.16 11.29 42.77 42.77 0 00-.14 7c0 .58.13 1.26.2 1.76s.13 1.07.17 1.61c.09 1.08.13 2.18.12 3.27a50.12 50.12 0 01-7 24.93 30 30 0 01-8.62 9.21 20.37 20.37 0 01-2.71 1.58c-.93.47-2 1-3 1.43l-6.15 2.82-6.16 2.85c-2.05 1-4.1 2-6.13 3a63.49 63.49 0 00-6 3.45 18.69 18.69 0 00-2.72 2.16 6.3 6.3 0 00-1.43 1.93 14 14 0 01-4 .58 15.85 15.85 0 01-3.93-.2 3.15 3.15 0 01-2.43-2.39 6.64 6.64 0 01-.16-1.9c0-.33 0-.66.09-1a6.19 6.19 0 01.23-.92 14.44 14.44 0 014.84-6.09l-1.3.19a13.5 13.5 0 00-4.35 5.62 6.47 6.47 0 00-.28 1.07 9.52 9.52 0 00-.11 1.06 7.62 7.62 0 00.15 2.17 4.16 4.16 0 001.09 2 4.21 4.21 0 002 1.07 7.51 7.51 0 002.15.18 20.62 20.62 0 002.07-.17 10.76 10.76 0 003.78-1 2.85 2.85 0 00-.11.39 5.51 5.51 0 00-.52 3.31 5.81 5.81 0 002 3.49 6.39 6.39 0 003.8 1.46 18.18 18.18 0 002 0l1.91-.11a90.72 90.72 0 0015.19-2.27 78.7 78.7 0 0014.58-5 80.63 80.63 0 0013.31-7.8c1.05-.74 2.08-1.5 3.1-2.26s2-1.46 3.09-2.32a59.7 59.7 0 005.63-5.37 100.8 100.8 0 009.64-12.07 83.15 83.15 0 007.59-13.53 50 50 0 004.15-15.09A113 113 0 00239 150.82l-1.83-3.43-2-3.35c-1.32-2.16-2.55-4.27-3.69-6.5a107.32 107.32 0 01-5.78-13.81 147.36 147.36 0 01-4.12-14.47c-1.11-4.88-2.09-9.88-2.7-14.77l-.65-5.25-2.95 4.33a42.31 42.31 0 00-2.86 5c-.84 1.68-1.61 3.37-2.34 5.07-1.46 3.4-2.8 6.83-4.09 10.27q-1.56 4.26-3 8.53-1.08 3.11-2.11 6.24c-.63 1.91-1.25 3.83-1.88 5.76zm3.51 1.81l.11-.35c1.43-4.47 2.91-8.93 4.47-13.36q1.26-3.65 2.6-7.25c1.27-3.4 2.59-6.77 4-10.08.66-1.52 1.35-3 2.08-4.53a152.5 152.5 0 006.29 24.32 109.13 109.13 0 006.08 14.28c1.18 2.3 2.53 4.57 3.87 6.74l1.93 3.21 1.79 3.29a106.48 106.48 0 019.93 28.22 107.58 107.58 0 011.93 29.9 47.13 47.13 0 01-3.76 14.24 81.84 81.84 0 01-7.18 13.12 101 101 0 01-9.22 11.89 58.26 58.26 0 01-5.32 5.23c-.9.75-2 1.52-3 2.3s-2 1.54-3 2.29a79.39 79.39 0 01-27 13.07 89.09 89.09 0 01-14.89 2.62l-1.89.16a17 17 0 01-1.84.09 5.43 5.43 0 01-3.23-1.13 5.76 5.76 0 01-1.88-2.9 7.36 7.36 0 01-.06-3.34 6 6 0 011.89-1.91 22.9 22.9 0 012.91-1.61c2-.94 4.11-1.77 6.22-2.56l6.35-2.36 6.36-2.4c2.11-.83 4.22-1.69 6.32-2.55 1.07-.45 2.07-.84 3.17-1.37a25.4 25.4 0 003.2-1.75 31 31 0 009.81-10.42 45.63 45.63 0 005.2-13.08 53.2 53.2 0 001.43-13.89 35 35 0 00-.27-3.52c-.07-.58-.15-1.17-.26-1.75s-.19-1-.26-1.6a42.1 42.1 0 01-.2-6.57 74.19 74.19 0 011.54-12.94 45 45 0 014.65-3.51l-.26-.43-.26-.43a50.82 50.82 0 00-9.37 7.53 47.56 47.56 0 00-7.32 9.59 39.9 39.9 0 00-2.61 5.48c-.73 1.93-1.26 3.76-2.05 5.55a55.18 55.18 0 01-5.65 10.2 44.88 44.88 0 01-7.7 8.61 21 21 0 01-9.88 5 11.62 11.62 0 01-5.28-.36 11.36 11.36 0 01-4.6-2.5 5.31 5.31 0 01-1.49-4.34 17.51 17.51 0 011.42-5.25c1.48-3.52 3.46-7 5.32-10.48l2.76-5.23c1-1.71 1.93-3.4 3-5.07 2-3.35 4.26-6.61 6.45-9.94a72 72 0 006-10.6 35.71 35.71 0 001.95-6 58.74 58.74 0 001-6.06c.46-4 .71-8 1.1-11.88a75.31 75.31 0 011.84-11.45 26.7 26.7 0 014.61-10z"/><path class="cls-2" d="M140.73 189.56a20.81 20.81 0 008.24 2.18 19 19 0 008.51-1.62 22.55 22.55 0 006.82-4.71 33 33 0 008.09-13.15l-.85-.52c-3.54 3.57-6.89 7.06-10.63 9.64s-7.66 4.17-11.66 4-8.14-1.95-12-4.49a82.8 82.8 0 01-11.1-9.16l-.85.53A32.25 32.25 0 00129 179a36.13 36.13 0 005.11 5.91 27.86 27.86 0 006.62 4.65zM161.89 151.23a21.79 21.79 0 0011.76 3.77 17.53 17.53 0 006.58-1.2 16.87 16.87 0 005.65-3.65 13.78 13.78 0 003.36-5.45 11.12 11.12 0 00.3-6.3l-1-.24c-3.13 2.71-5.23 5.07-7.43 7a12.57 12.57 0 01-7.65 3.45 22 22 0 01-4.72-.17c-.8-.08-1.57-.31-2.37-.47s-1.58-.44-2.34-.78a30.55 30.55 0 01-8.92-5.41l-.84.55a21 21 0 007.62 8.9zM143.35 143.35l-.8-.61a31.72 31.72 0 01-9.25 4.84c-.78.27-1.59.44-2.38.63a22 22 0 01-2.38.34 22.54 22.54 0 01-4.72-.08 13.53 13.53 0 01-4.1-1.27 15.47 15.47 0 01-3.49-2.48 38.83 38.83 0 01-3.32-3.42c-1.11-1.28-2.25-2.69-3.52-4.2l-1 .19a12.78 12.78 0 00.24 6.15 15.13 15.13 0 002.88 5.64 16.41 16.41 0 0011.75 5.72 21.54 21.54 0 0012-3 20.74 20.74 0 008.09-8.45z"/><path class="cls-7" d="M115.52 231.53c3.37 2.22 9.85 3.19 12.38-1.76s-4.07-12.41-4.07-12.41a23.24 23.24 0 00-14.93 7.58c1.65 3.5 4.85 5.42 6.62 6.59zM174.12 217.36s-6.59 7.47-4.06 12.41 9 4 12.37 1.76c1.78-1.17 5-3.09 6.63-6.59a23.24 23.24 0 00-14.94-7.58z"/></svg>