<svg width="105" height="18" fill="none" xmlns="http://www.w3.org/2000/svg"><path d="M8.524 1.464a.5.5 0 01.952 0l1.432 4.41a.5.5 0 00.476.345h4.637a.5.5 0 01.294.904L12.563 9.85a.5.5 0 00-.181.559l1.433 4.41a.5.5 0 01-.77.559L9.294 12.65a.5.5 0 00-.588 0l-3.751 2.726a.5.5 0 01-.77-.56l1.433-4.41a.5.5 0 00-.181-.558L1.685 7.123a.5.5 0 01.294-.904h4.637a.5.5 0 00.476-.346l1.432-4.41zM30.524 1.464a.5.5 0 01.951 0l1.433 4.41a.5.5 0 00.476.345h4.637a.5.5 0 01.294.904L34.563 9.85a.5.5 0 00-.181.559l1.433 4.41a.5.5 0 01-.77.559l-3.751-2.726a.5.5 0 00-.588 0l-3.751 2.726a.5.5 0 01-.77-.56l1.433-4.41a.5.5 0 00-.181-.558l-3.752-2.726a.5.5 0 01.294-.904h4.637a.5.5 0 00.476-.346l1.433-4.41zM52.022 1.558a.5.5 0 01.956 0L54.3 5.866a.5.5 0 00.478.353h4.336a.5.5 0 01.305.896l-3.556 2.736a.5.5 0 00-.173.543l1.346 4.388a.5.5 0 01-.783.543l-3.448-2.653a.5.5 0 00-.61 0l-3.448 2.653a.5.5 0 01-.783-.543l1.346-4.388a.5.5 0 00-.173-.543l-3.556-2.736a.5.5 0 01.305-.896h4.336a.5.5 0 00.478-.353l1.322-4.308zM73.525 1.464a.5.5 0 01.95 0l1.433 4.41a.5.5 0 00.476.345h4.637a.5.5 0 01.294.904L77.563 9.85a.5.5 0 00-.181.559l1.432 4.41a.5.5 0 01-.769.559l-3.751-2.726a.5.5 0 00-.588 0l-3.751 2.726a.5.5 0 01-.77-.56l1.433-4.41a.5.5 0 00-.181-.558l-3.752-2.726a.5.5 0 01.294-.904h4.637a.5.5 0 00.476-.346l1.433-4.41zM95.525 1.464a.5.5 0 01.95 0l1.433 4.41a.5.5 0 00.476.345h4.637a.5.5 0 01.294.904L99.563 9.85a.5.5 0 00-.181.559l1.433 4.41a.5.5 0 01-.77.559l-3.751-2.726a.5.5 0 00-.588 0l-3.751 2.726a.5.5 0 01-.77-.56l1.433-4.41a.5.5 0 00-.181-.558l-3.752-2.726a.5.5 0 01.294-.904h4.637a.5.5 0 00.476-.346l1.433-4.41z" fill="#F3BE00"/></svg>