<svg width="525" height="277" viewBox="0 0 525 277" xmlns="http://www.w3.org/2000/svg">
<path d="M5.43994 225.94C7.54142 230.659 10.0721 235.174 12.9999 239.43C15.9014 243.665 19.1171 247.677 22.6199 251.43C24.3719 253.343 26.2494 255.137 28.2399 256.8C29.2999 257.65 30.2999 258.33 31.3199 259.11C32.3399 259.89 33.3199 260.64 34.4099 261.39C38.5851 264.399 43.0348 267.007 47.6999 269.18C52.3738 271.321 57.2474 272.996 62.2499 274.18C67.2315 275.379 72.3068 276.149 77.4199 276.48C78.0499 276.48 78.6899 276.55 79.3299 276.59C79.9961 276.627 80.6638 276.627 81.3299 276.59C82.707 276.528 84.028 276.027 85.1 275.16C86.1521 274.277 86.8601 273.052 87.1 271.7C87.2818 270.567 87.1144 269.405 86.6199 268.37C86.5925 268.244 86.5558 268.12 86.5099 268C87.7009 268.564 88.9858 268.903 90.2999 269C90.9835 269.088 91.671 269.142 92.3599 269.16C93.0781 269.194 93.7976 269.134 94.4999 268.98C95.2478 268.813 95.9379 268.451 96.4999 267.93C97.0385 267.378 97.4095 266.684 97.57 265.93C97.7267 265.221 97.7806 264.494 97.7299 263.77C97.7299 263.42 97.6699 263.07 97.6199 262.72C97.5526 262.357 97.459 261.999 97.3399 261.65C96.4247 259.429 94.9291 257.495 93.0099 256.05L94.27 256.22C98.648 256.763 103.067 256.897 107.47 256.62C109.28 256.5 111.09 256.31 112.89 256.03C110.956 257.475 109.449 259.417 108.53 261.65C108.406 261.998 108.313 262.356 108.25 262.72C108.2 263.07 108.16 263.42 108.14 263.77C108.084 264.494 108.138 265.222 108.3 265.93C108.46 266.684 108.831 267.378 109.37 267.93C109.933 268.45 110.622 268.812 111.37 268.98C112.072 269.133 112.792 269.194 113.51 269.16C114.202 269.141 114.893 269.088 115.58 269C116.894 268.902 118.178 268.563 119.37 268C119.326 268.107 119.293 268.217 119.27 268.33V268.33C118.772 269.368 118.601 270.533 118.78 271.67C119.02 273.022 119.728 274.247 120.78 275.13C121.853 275.995 123.173 276.496 124.55 276.56C125.216 276.597 125.884 276.597 126.55 276.56C127.18 276.56 127.82 276.5 128.46 276.45C133.573 276.119 138.648 275.349 143.63 274.15C148.632 272.964 153.505 271.289 158.18 269.15C162.842 266.977 167.288 264.369 171.46 261.36C172.46 260.61 173.54 259.85 174.56 259.08C175.58 258.31 176.56 257.62 177.64 256.77C179.626 255.102 181.503 253.308 183.26 251.4C186.765 247.652 189.978 243.64 192.87 239.4C195.795 235.146 198.319 230.63 200.41 225.91C202.572 221.138 203.969 216.056 204.55 210.85C206.292 190.163 202.278 169.397 192.95 150.85C191.783 148.543 190.517 146.287 189.15 144.08C187.82 141.93 186.58 139.81 185.44 137.57C183.183 133.099 181.245 128.474 179.64 123.73C178.015 118.971 176.637 114.131 175.51 109.23C174.362 104.352 173.461 99.4189 172.81 94.45L172.23 89.82L169.63 93.63C168.575 95.2327 167.626 96.903 166.79 98.63C165.96 100.31 165.19 102 164.46 103.69C163 107.08 161.66 110.51 160.38 113.95C159.3 116.85 158.27 119.76 157.25 122.67C152.459 112.138 146.946 101.951 140.75 92.18C136.95 86.12 132.89 80.18 128.64 74.47C127.58 73.04 126.5 71.6 125.41 70.18L123.76 68.07L122.93 67.01L122.19 66.01L120.71 64.01C120.22 63.31 119.81 62.56 119.36 61.84C118.91 61.12 118.44 60.4 118.06 59.63L116.88 57.35C113.831 51.1054 111.399 44.5777 109.62 37.86C108.62 34.51 107.85 31.1 107.11 27.68C106.37 24.26 105.75 20.78 105.27 17.39L102.71 0L100.58 17.38C100.06 21.47 99.28 25.66 98.41 29.76C97.54 33.86 96.48 38 95.24 42C94.66 44 93.95 46 93.24 48C92.88 49 92.4799 50 92.1099 50.92L91.5499 52.38L90.9999 53.71C89.3941 57.5013 87.4249 61.1283 85.1199 64.54L83.2899 67L81.2899 69.54C79.9699 71.23 78.6699 72.95 77.3999 74.68C74.8466 78.14 72.3799 81.6467 69.9999 85.2C65.1799 92.3133 60.6833 99.6467 56.5099 107.2C54.4199 110.96 52.4499 114.8 50.5799 118.68C49.9199 120.05 49.2799 121.41 48.6499 122.79C47.6499 119.86 46.6499 116.94 45.5199 114.02C44.2399 110.58 42.8999 107.15 41.4399 103.76C40.7099 102.07 39.9399 100.38 39.0999 98.7C38.2711 96.9711 37.3256 95.3006 36.2699 93.7L33.6699 89.89L33.0899 94.52C32.4357 99.4891 31.5312 104.422 30.3799 109.3C29.2579 114.202 27.8793 119.042 26.2499 123.8C24.6447 128.544 22.7065 133.169 20.4499 137.64C19.3199 139.88 18.0899 142 16.7499 144.15C15.4099 146.3 14.1199 148.61 12.9399 150.92C8.26617 160.136 4.91968 169.967 2.99994 180.12C1.02297 190.247 0.467625 200.6 1.34994 210.88C1.91485 216.083 3.29507 221.166 5.43994 225.94V225.94ZM96.5599 262C96.6616 262.303 96.7352 262.614 96.7799 262.93C96.8338 263.261 96.8672 263.595 96.88 263.93C96.9179 264.574 96.864 265.221 96.7199 265.85C96.5807 266.447 96.2761 266.992 95.841 267.424C95.4058 267.855 94.8579 268.156 94.2599 268.29C92.9398 268.521 91.5955 268.581 90.2599 268.47C89.5799 268.47 88.9099 268.38 88.2599 268.3C87.6004 268.237 86.9518 268.089 86.3299 267.86C85.9677 267.134 85.4725 266.483 84.8699 265.94C84.0286 265.145 83.1108 264.435 82.13 263.82C80.1968 262.576 78.1935 261.444 76.1299 260.43C74.1299 259.43 72.0399 258.43 69.9899 257.43L63.8199 254.6L57.6599 251.79C56.6599 251.31 55.5699 250.84 54.6599 250.36C53.709 249.905 52.7932 249.38 51.9199 248.79C48.3959 246.342 45.4335 243.172 43.2299 239.49C38.7351 231.901 36.3206 223.26 36.2299 214.44C36.2299 213.34 36.2299 212.25 36.3599 211.17C36.3599 210.62 36.4599 210.08 36.5399 209.54C36.6199 209 36.6999 208.36 36.7399 207.79C36.8905 205.457 36.8538 203.117 36.6299 200.79C36.2832 196.874 35.5496 193.002 34.4399 189.23C34.8533 189.61 35.2633 190 35.6699 190.4C36.0955 195.997 36.9818 201.549 38.3199 207C40.3783 215.616 44.1163 223.741 49.3199 230.91C51.9439 234.476 54.9631 237.733 58.3199 240.62C61.6905 243.476 65.3426 245.982 69.2199 248.1C70.2199 248.61 71.1599 249.16 72.1499 249.63L75.1499 251.02C77.1499 251.85 79.2199 252.7 81.3299 253.35C84.7406 254.499 88.2341 255.384 91.7799 256V256C93.8925 257.525 95.5459 259.6 96.5599 262ZM117.44 268.28C116.78 268.36 116.1 268.42 115.44 268.45C114.104 268.561 112.76 268.501 111.44 268.27C110.84 268.139 110.291 267.84 109.855 267.408C109.419 266.976 109.116 266.428 108.98 265.83C108.831 265.202 108.777 264.554 108.82 263.91C108.82 263.59 108.87 263.25 108.91 262.91C108.958 262.594 109.035 262.282 109.14 261.98C110.159 259.555 111.827 257.459 113.96 255.92V255.92C116.11 255.55 118.25 255.08 120.37 254.53C128.903 252.255 136.935 248.402 144.05 243.17C147.597 240.531 150.846 237.513 153.74 234.17C156.594 230.779 159.075 227.091 161.14 223.17C163.198 219.275 164.873 215.189 166.14 210.97C167.409 206.79 168.365 202.522 169 198.2C169.37 195.68 169.65 193.14 169.84 190.62C170.3 190.15 170.77 189.7 171.24 189.26C170.132 193.031 169.405 196.904 169.07 200.82C168.839 203.146 168.796 205.487 168.94 207.82C168.94 208.39 169.09 209.06 169.15 209.57C169.21 210.08 169.28 210.65 169.33 211.2C169.42 212.28 169.46 213.37 169.46 214.47C169.365 223.289 166.95 231.929 162.46 239.52C160.256 243.204 157.289 246.375 153.76 248.82C152.889 249.415 151.973 249.94 151.02 250.39C150.08 250.87 149.02 251.34 148.02 251.82L141.87 254.63L135.69 257.46C133.64 258.46 131.59 259.4 129.55 260.46C127.488 261.476 125.484 262.608 123.55 263.85C122.573 264.47 121.655 265.18 120.81 265.97C120.21 266.511 119.721 267.163 119.37 267.89V267.89C118.745 268.098 118.097 268.226 117.44 268.27V268.28ZM156.33 136.15L156.44 135.84L157.04 133.93C157.4 132.84 157.76 131.74 158.11 130.65C158.46 129.59 158.81 128.54 159.17 127.48C159.47 126.59 159.77 125.7 160.08 124.81C161.173 121.61 162.31 118.427 163.49 115.26C164.77 111.86 166.09 108.47 167.49 105.17C168.25 103.43 169.04 101.67 169.9 100C170.45 103.42 171.15 106.78 171.9 110.16C173.074 115.168 174.509 120.112 176.2 124.97C177.883 129.856 179.908 134.618 182.26 139.22C183.44 141.51 184.78 143.79 186.13 145.94C187.48 148.09 188.69 150.24 189.85 152.45C194.476 161.366 197.823 170.89 199.79 180.74C201.819 190.603 202.458 200.7 201.69 210.74C201.206 215.636 199.961 220.427 198 224.94C196.013 229.545 193.606 233.957 190.81 238.12C188.017 242.303 184.918 246.274 181.54 250C179.879 251.864 178.095 253.614 176.2 255.24C175.29 256 174.2 256.77 173.2 257.55C172.2 258.33 171.2 259.08 170.2 259.83C162.111 265.858 152.947 270.29 143.2 272.89C138.312 274.176 133.324 275.046 128.29 275.49L126.39 275.64C125.775 275.704 125.158 275.734 124.54 275.73C123.358 275.708 122.214 275.304 121.28 274.58C120.36 273.82 119.699 272.793 119.39 271.64C119.125 270.526 119.125 269.364 119.39 268.25C119.864 267.491 120.499 266.846 121.25 266.36C122.176 265.744 123.145 265.196 124.15 264.72C126.15 263.72 128.25 262.92 130.36 262.11L143 257.28C145.107 256.447 147.21 255.59 149.31 254.71C150.38 254.27 151.39 253.87 152.47 253.35C153.565 252.843 154.624 252.262 155.64 251.61C159.648 248.962 162.986 245.419 165.39 241.26C167.776 237.219 169.523 232.834 170.57 228.26C171.66 223.727 172.141 219.07 172 214.41C172 213.24 171.88 212.07 171.74 210.91C171.67 210.33 171.59 209.75 171.48 209.17C171.37 208.59 171.29 208.11 171.22 207.55C170.994 205.361 170.934 203.158 171.04 200.96C171.14 198.73 171.29 196.49 171.57 194.27C171.81 192.152 172.167 190.049 172.64 187.97C174.125 186.7 175.688 185.525 177.32 184.45L177.09 184.07L176.87 183.69C174.401 185.224 172.078 186.982 169.93 188.94C169.15 189.64 168.4 190.36 167.66 191.11L167.52 191.24C166.76 192.02 166.01 192.83 165.29 193.66C163.383 195.879 161.688 198.273 160.23 200.81C159.217 202.564 158.348 204.396 157.63 206.29C156.91 208.21 156.37 210.05 155.63 211.84C154.119 215.439 152.232 218.868 150 222.07C147.805 225.273 145.207 228.18 142.27 230.72C139.474 233.269 136.044 235.02 132.34 235.79C130.549 236.079 128.715 235.953 126.98 235.42C125.247 234.954 123.647 234.087 122.31 232.89C121.611 232.214 121.125 231.348 120.91 230.4C120.756 229.745 120.705 229.07 120.76 228.4C120.96 226.566 121.446 224.774 122.2 223.09C123.68 219.55 125.65 216.09 127.51 212.59C128.45 210.81 129.33 209.06 130.27 207.35C131.21 205.64 132.2 203.94 133.27 202.27C135.32 198.92 137.53 195.66 139.73 192.33C142.03 188.985 144.037 185.449 145.73 181.76C146.225 180.6 146.649 179.411 147 178.2C147.23 177.43 147.45 176.65 147.62 175.86C148.053 173.878 148.387 171.875 148.62 169.86C149.08 165.86 149.32 161.86 149.71 157.98C150.028 154.112 150.643 150.274 151.55 146.5C152.379 142.849 153.963 139.412 156.2 136.41L156.33 136.15ZM54.6399 120.62C56.4666 116.82 58.4033 113.07 60.4499 109.37C64.5433 101.977 68.9699 94.7733 73.7299 87.76C76.11 84.26 78.5566 80.81 81.0699 77.41C82.3399 75.71 83.61 74.02 84.91 72.35L86.91 69.86L88.91 67.14C91.3819 63.4838 93.4982 59.5994 95.2299 55.54L95.8999 54.04L96.49 52.52C96.88 51.52 97.2899 50.52 97.6699 49.47C98.3599 47.47 99.0999 45.37 99.6699 43.28C100.95 39.14 102.02 34.95 102.93 30.72C103.54 33.53 104.21 36.33 104.99 39.09C106.859 46.0973 109.397 52.9087 112.57 59.43L113.84 61.87C114.25 62.69 114.78 63.46 115.23 64.25C115.68 65.04 116.17 65.83 116.7 66.6L118.33 68.86L119.15 69.98L119.96 70.98L121.58 73.06C122.66 74.45 123.71 75.86 124.76 77.27C128.94 82.9367 132.923 88.74 136.71 94.68C143.737 105.599 149.854 117.078 155 129C154.4 130.84 153.81 132.69 153.23 134.55C150.83 137.881 149.129 141.664 148.23 145.67C147.313 149.618 146.694 153.629 146.38 157.67C146.02 161.67 145.8 165.61 145.38 169.5C145.17 171.43 144.9 173.35 144.51 175.21C144.1 177.053 143.521 178.854 142.78 180.59C141.188 184.128 139.29 187.521 137.11 190.73C134.97 194.04 132.75 197.37 130.68 200.79C129.68 202.51 128.68 204.25 127.68 206.02C126.68 207.79 125.85 209.6 124.96 211.34C123.17 214.86 121.22 218.34 119.69 222.14C118.85 224.098 118.33 226.178 118.15 228.3C118.078 229.458 118.231 230.62 118.6 231.72C118.883 232.509 119.295 233.246 119.82 233.9C120.026 234.174 120.257 234.428 120.51 234.66C121.466 235.569 122.577 236.3 123.79 236.82C124.09 236.96 124.4 237.08 124.71 237.21C125.21 237.39 125.71 237.56 126.22 237.72C128.305 238.325 130.501 238.444 132.64 238.07C136.736 237.182 140.517 235.21 143.59 232.36C146.631 229.665 149.301 226.578 151.53 223.18C153.707 219.943 155.541 216.488 157 212.87L157.16 212.48C157.87 210.77 158.38 208.95 158.94 207.28L159.1 206.83C159.764 204.998 160.566 203.22 161.5 201.51C162.53 199.621 163.696 197.809 164.99 196.09C164.94 196.59 164.86 197.09 164.79 197.58C163.683 205.815 161.177 213.799 157.38 221.19C156.85 222.19 156.27 223.19 155.67 224.19C154.136 226.711 152.404 229.105 150.49 231.35L149.68 232.27C147.195 235.011 144.445 237.5 141.47 239.7C134.789 244.579 127.252 248.161 119.25 250.26C117.93 250.6 116.59 250.91 115.25 251.17C112.552 251.72 109.818 252.08 107.07 252.25C102.957 252.495 98.8295 252.365 94.74 251.86C93.28 251.69 91.84 251.46 90.41 251.17C87.8033 250.654 85.2289 249.986 82.6999 249.17C80.6999 248.57 78.8299 247.77 76.9199 246.99L74.1199 245.68C73.1799 245.24 72.2799 244.73 71.3699 244.26C67.7591 242.275 64.3584 239.93 61.2199 237.26C59.2563 235.576 57.415 233.755 55.7099 231.81C54.7099 230.67 53.7699 229.5 52.8699 228.28C51.7901 226.828 50.7887 225.319 49.8699 223.76V223.76C46.6326 218.218 44.2173 212.236 42.6999 206C41.9304 202.837 41.3262 199.636 40.8899 196.41C42.1177 198.046 43.2271 199.767 44.2099 201.56C45.1333 203.272 45.9288 205.05 46.5899 206.88C46.6499 207.03 46.6999 207.18 46.7499 207.33C47.3199 209 47.8299 210.82 48.5299 212.53L48.7099 212.96C50.1688 216.553 51.9917 219.988 54.1499 223.21C56.3826 226.608 59.0559 229.695 62.0999 232.39C65.1839 235.251 68.985 237.225 73.0999 238.1C75.2386 238.474 77.4346 238.355 79.5199 237.75C80.0199 237.59 80.5199 237.42 81.0299 237.23C81.3399 237.11 81.6399 236.99 81.9499 236.85C83.1585 236.328 84.2655 235.597 85.2199 234.69C85.4735 234.456 85.7076 234.202 85.9199 233.93C86.445 233.276 86.8573 232.539 87.1399 231.75C87.5102 230.65 87.6597 229.488 87.5799 228.33C87.4028 226.208 86.8862 224.128 86.0499 222.17C84.5199 218.37 82.5599 214.89 80.7899 211.37C79.8899 209.63 79.0199 207.82 78.0499 206.05C77.0799 204.28 76.0499 202.54 75.0499 200.82C72.9799 197.4 70.7599 194.07 68.6199 190.76C66.4395 187.551 64.5423 184.158 62.9499 180.62C62.2088 178.884 61.6296 177.083 61.2199 175.24C60.8199 173.38 60.5699 171.46 60.3499 169.53C59.9299 165.64 59.7099 161.68 59.3499 157.7C59.0455 153.658 58.427 149.646 57.4999 145.7C56.605 141.692 54.9038 137.909 52.4999 134.58C51.9399 132.79 51.3799 131 50.7899 129.21C51.9899 126.303 53.2733 123.44 54.6399 120.62ZM5.84994 180.69C7.81731 170.84 11.1636 161.316 15.7899 152.4C16.9499 150.187 18.1933 148.017 19.5199 145.89C20.8699 143.74 22.1999 141.46 23.3899 139.17C25.7219 134.567 27.7268 129.805 29.3899 124.92C31.0795 120.06 32.5181 115.117 33.6999 110.11C34.4799 106.72 35.1799 103.35 35.6999 99.93C36.5599 101.61 37.3399 103.38 38.1099 105.12C39.5399 108.42 40.8699 111.81 42.1099 115.21C43.1566 118.01 44.1566 120.827 45.1099 123.66C45.5499 124.91 45.9899 126.17 46.4099 127.43C46.7799 128.52 47.1399 129.63 47.4999 130.72C47.8599 131.81 48.2399 132.98 48.5999 134.11C48.7899 134.68 48.9699 135.25 49.1599 135.83L49.2499 136.14L49.4499 136.38C51.6826 139.385 53.2662 142.821 54.0999 146.47C55.0514 150.258 55.7133 154.112 56.0799 158C56.4699 161.91 56.7099 165.88 57.1699 169.88C57.3983 171.896 57.7321 173.899 58.1699 175.88C58.3499 176.67 58.5499 177.45 58.7899 178.22C59.161 179.438 59.6017 180.633 60.1099 181.8C61.8033 185.489 63.8107 189.025 66.1099 192.37C68.2899 195.7 70.5099 198.96 72.5599 202.31C73.5599 203.98 74.5599 205.67 75.5599 207.39C76.5599 209.11 77.3699 210.85 78.3199 212.63C80.1699 216.15 82.15 219.63 83.63 223.13C84.3901 224.811 84.873 226.604 85.0599 228.44C85.1216 229.11 85.0709 229.786 84.91 230.44C84.7073 231.394 84.2231 232.265 83.52 232.94C82.1829 234.137 80.5833 235.004 78.8499 235.47C77.1153 236.003 75.2813 236.129 73.4899 235.84C69.7825 235.07 66.3497 233.319 63.5499 230.77C60.6153 228.228 58.0176 225.321 55.8199 222.12C53.5845 218.918 51.694 215.489 50.1799 211.89C49.3899 210.1 48.8699 208.26 48.1799 206.34C47.4538 204.45 46.5846 202.618 45.5799 200.86C44.1744 198.405 42.5405 196.088 40.6999 193.94C39.9299 193.03 39.1199 192.15 38.2799 191.29L37.9999 191.1C37.2099 190.3 36.3999 189.52 35.5599 188.78C33.4621 186.886 31.1998 185.183 28.7999 183.69L28.5799 184.07L28.3499 184.45C29.9914 185.531 31.5613 186.717 33.0499 188C33.5312 190.077 33.8918 192.181 34.1299 194.3C34.3999 196.52 34.5499 198.76 34.6499 200.99C34.771 203.188 34.7108 205.392 34.4699 207.58C34.3999 208.14 34.3099 208.58 34.2199 209.2C34.1299 209.82 34.0199 210.36 33.9499 210.94C33.8099 212.1 33.7299 213.27 33.6999 214.44C33.5794 219.097 34.0703 223.75 35.1599 228.28C36.2104 232.855 37.961 237.24 40.3499 241.28C42.7513 245.438 46.0856 248.981 50.0899 251.63C51.1066 252.28 52.1657 252.861 53.2599 253.37C54.3499 253.89 55.3599 254.29 56.4199 254.73C58.5199 255.61 60.6299 256.47 62.7299 257.3L75.41 262.13C77.52 262.94 79.6099 263.78 81.6199 264.74C82.6273 265.211 83.5968 265.76 84.52 266.38C85.2706 266.862 85.9057 267.504 86.38 268.26C86.6554 269.38 86.6554 270.55 86.38 271.67C86.0748 272.822 85.4176 273.85 84.4999 274.61C83.5617 275.334 82.4152 275.738 81.2299 275.76C80.6121 275.764 79.9945 275.734 79.3799 275.67L77.4899 275.52C72.4554 275.076 67.4676 274.206 62.5799 272.92C52.8298 270.327 43.6652 265.895 35.5799 259.86C34.5799 259.11 33.5799 258.36 32.5799 257.58C31.5799 256.8 30.4999 256.03 29.5799 255.27C27.6694 253.634 25.8688 251.873 24.1899 250C20.818 246.27 17.7263 242.296 14.9399 238.11C12.1366 233.951 9.72937 229.538 7.74994 224.93C5.75162 220.399 4.48585 215.579 3.99994 210.65C3.21455 200.626 3.83726 190.541 5.84994 180.69V180.69Z" />
<path d="M80.1396 171.77L79.3896 172.23C80.3743 174.587 81.6294 176.822 83.1297 178.89C84.635 181.004 86.3577 182.955 88.2697 184.71C90.2451 186.526 92.4711 188.048 94.8797 189.23C97.4098 190.485 100.169 191.21 102.99 191.36C105.859 191.483 108.717 190.939 111.34 189.77C113.857 188.667 116.149 187.107 118.1 185.17C121.796 181.539 124.618 177.114 126.35 172.23L125.59 171.77C122.17 175.41 118.86 178.97 115.11 181.61C111.36 184.25 107.35 185.93 103.23 185.76C99.1096 185.59 94.9296 183.76 91.0896 181.14C87.1545 178.366 83.4884 175.229 80.1396 171.77Z" />
<path d="M116 151C116.849 151.553 117.73 152.053 118.64 152.5C119.569 152.931 120.528 153.296 121.51 153.59C123.493 154.209 125.553 154.546 127.63 154.59C129.833 154.607 132.02 154.199 134.07 153.39C136.13 152.587 138.005 151.372 139.58 149.82C141.083 148.322 142.234 146.508 142.95 144.51C143.685 142.547 143.869 140.42 143.48 138.36L142.62 138.14C139.74 140.95 137.62 143.42 135.42 145.45C133.271 147.516 130.471 148.771 127.5 149C125.893 149.106 124.28 149.033 122.69 148.78C121.88 148.69 121.1 148.45 120.29 148.28C119.48 148.11 118.7 147.8 117.93 147.45C114.675 146.113 111.682 144.21 109.09 141.83L108.35 142.32C109.169 144.081 110.247 145.709 111.55 147.15C112.856 148.625 114.352 149.92 116 151V151Z" />
<path d="M65.8104 148.82C67.2126 150.523 68.9794 151.89 70.9804 152.82C71.4904 153.05 71.9804 153.28 72.5104 153.49L74.1004 153.94C74.3704 154 74.6304 154.09 74.9004 154.14L75.7104 154.25C76.2404 154.33 76.7804 154.39 77.3204 154.44C80.3744 154.597 83.4269 154.104 86.2764 152.993C89.1258 151.883 91.7073 150.181 93.8504 148C94.1904 147.65 94.5204 147.31 94.8504 146.94C95.1804 146.57 95.4604 146.2 95.7504 145.8C96.343 145.034 96.862 144.214 97.3004 143.35L96.6004 142.82C93.8533 145.006 90.747 146.698 87.4204 147.82C86.6304 148.11 85.8204 148.3 85.0204 148.51C82.6433 149.003 80.2033 149.117 77.7904 148.85C76.318 148.645 74.8871 148.21 73.5504 147.56C72.2531 146.877 71.0581 146.015 70.0004 145C68.8235 143.887 67.7211 142.698 66.7004 141.44C65.6304 140.12 64.5504 138.67 63.3904 137.13L62.5204 137.3C62.2061 139.307 62.3532 141.359 62.9504 143.3C63.5255 145.312 64.498 147.189 65.8104 148.82V148.82Z" />
<path d="M69.5204 231.52C72.9004 233.75 79.3704 234.71 81.9004 229.77C82.1708 229.238 82.3467 228.662 82.4204 228.07C83.0604 223.29 77.8304 217.36 77.8304 217.36C73.3451 217.801 69.0852 219.539 65.5704 222.36C64.5991 223.117 63.7048 223.968 62.9004 224.9C64.5504 228.44 67.7404 230.36 69.5204 231.52Z" />
<path d="M140.32 222.35C136.823 219.538 132.584 217.801 128.12 217.35C128.12 217.35 123 223.15 123.52 227.92C123.581 228.562 123.764 229.187 124.06 229.76C126.58 234.7 133.059 233.76 136.429 231.51C138.209 230.35 141.43 228.43 143.06 224.93C142.233 223.982 141.316 223.118 140.32 222.35V222.35Z" />
<path d="M245.92 139.46C245.35 139.46 244.68 139.52 243.92 139.54C243.16 139.56 242.44 139.61 241.8 139.68C241.883 139.033 241.93 138.382 241.94 137.73C241.94 136.92 241.94 136 241.94 134.99V124.07L260.67 123.9V133.8C260.685 134.954 260.608 136.108 260.44 137.25C260.343 138.022 259.97 138.732 259.39 139.25C258.594 139.78 257.656 140.055 256.7 140.04V142.53H270.64V139.42L268.64 139.5C267.88 139.5 267.18 139.57 266.54 139.64C266.634 138.994 266.68 138.343 266.68 137.69C266.68 136.88 266.68 135.96 266.68 134.95V111.73C266.663 110.566 266.74 109.402 266.91 108.25C267.021 107.478 267.4 106.77 267.98 106.25C268.762 105.717 269.695 105.45 270.64 105.49V103H256.72V106.11L258.72 106L260.82 105.89C260.78 106.45 260.74 107.117 260.7 107.89C260.7 108.66 260.65 109.46 260.65 110.29V120.98H241.96V111.76C241.94 110.596 242.014 109.432 242.18 108.28C242.29 107.506 242.673 106.797 243.26 106.28C244.04 105.743 244.974 105.476 245.92 105.52V103.03H232V106.14L234 106.03L236.09 105.92C236.09 106.48 236.01 107.15 235.98 107.92C235.95 108.69 235.92 109.49 235.92 110.32V133.86C235.935 135.014 235.858 136.168 235.69 137.31C235.604 138.074 235.249 138.783 234.69 139.31C233.893 139.837 232.956 140.112 232 140.1V142.59H245.92V139.46Z" />
<path d="M289.962 126.641C288.082 127.009 286.257 127.617 284.532 128.451C282.979 129.183 281.612 130.256 280.532 131.591C279.51 132.877 278.969 134.479 279.002 136.121C278.978 137.053 279.15 137.979 279.506 138.841C279.863 139.702 280.396 140.479 281.072 141.121C282.442 142.461 284.492 143.121 287.202 143.121C288.786 143.119 290.351 142.778 291.792 142.121C293.334 141.409 294.733 140.423 295.922 139.211C295.992 139.701 296.052 140.211 296.092 140.621C296.132 141.031 296.182 141.621 296.262 142.211H305.262V139.211C304.662 139.211 304.022 139.231 303.342 139.271L301.342 139.381C301.412 138.591 301.472 137.831 301.512 137.121C301.552 136.411 301.572 135.761 301.572 135.191C301.572 133.801 301.572 132.481 301.572 131.191C301.572 129.901 301.572 128.701 301.572 127.461V123.551C301.572 119.891 300.772 117.221 299.172 115.551C297.572 113.881 295.172 113.001 291.902 113.001C289.92 112.981 287.948 113.299 286.072 113.941C284.524 114.426 283.117 115.28 281.972 116.431C281.496 116.906 281.118 117.47 280.861 118.091C280.603 118.712 280.471 119.378 280.472 120.051C280.456 120.837 280.706 121.605 281.182 122.231C281.424 122.542 281.738 122.789 282.097 122.951C282.456 123.113 282.849 123.185 283.242 123.161C283.677 123.224 284.12 123.171 284.527 123.008C284.935 122.845 285.292 122.577 285.562 122.231C285.961 121.715 286.197 121.092 286.242 120.441C286.236 120.07 286.189 119.701 286.102 119.341C285.994 118.96 285.787 118.615 285.502 118.341C286.009 117.435 286.81 116.73 287.772 116.341C288.704 115.959 289.705 115.776 290.712 115.801C291.883 115.711 293.044 116.068 293.962 116.801C294.674 117.49 295.159 118.379 295.352 119.351C295.583 120.459 295.697 121.589 295.692 122.721V126.061C293.768 126.062 291.848 126.256 289.962 126.641ZM295.732 136.231C294.838 137.077 293.828 137.791 292.732 138.351C291.639 138.879 290.436 139.143 289.222 139.121C288.231 139.145 287.262 138.823 286.482 138.211C286.074 137.862 285.747 137.428 285.526 136.939C285.305 136.45 285.194 135.918 285.202 135.381C285.176 134.305 285.507 133.25 286.142 132.381C286.798 131.535 287.64 130.851 288.602 130.381C289.696 129.814 290.864 129.403 292.072 129.161C293.294 128.897 294.534 128.726 295.782 128.651C295.782 129.744 295.782 130.744 295.782 131.651C295.782 132.558 295.782 133.188 295.782 133.541V134.941C295.672 135.391 295.692 135.821 295.732 136.231Z" />
<path d="M336.03 114H310.23L310 123.11H312.66C312.66 120.81 313.03 119.22 313.76 118.35C314.208 117.89 314.753 117.535 315.354 117.31C315.956 117.085 316.6 116.996 317.24 117.05H320.36C320.28 117.77 320.23 118.437 320.21 119.05C320.21 119.67 320.21 120.33 320.21 121V133.62C320.217 134.716 320.16 135.811 320.04 136.9C319.978 137.704 319.683 138.472 319.19 139.11C318.874 139.406 318.497 139.629 318.087 139.766C317.676 139.902 317.24 139.948 316.81 139.9V142.28H329.46V139.28L325.84 139.45C325.955 138.749 326.022 138.04 326.04 137.33C326.04 136.63 326.04 135.94 326.04 135.26V117.05H328.81C329.481 116.981 330.16 117.062 330.796 117.286C331.432 117.511 332.011 117.874 332.49 118.35C333.21 119.22 333.58 120.81 333.62 123.11H336.28L336.03 114Z" />
<path d="M366.392 140.382C366.472 139.592 366.522 138.832 366.562 138.122C366.602 137.412 366.622 136.762 366.622 136.192C366.622 134.805 366.622 133.472 366.622 132.192C366.622 130.952 366.622 129.702 366.622 128.462V124.552C366.622 120.892 365.812 118.222 364.212 116.552C362.612 114.882 360.212 114.002 356.942 114.002C354.961 113.974 352.99 114.281 351.112 114.912C349.564 115.397 348.157 116.251 347.012 117.402C346.536 117.877 346.158 118.441 345.901 119.062C345.643 119.683 345.511 120.349 345.512 121.022C345.501 121.807 345.75 122.574 346.222 123.202C346.465 123.512 346.779 123.759 347.138 123.921C347.496 124.083 347.889 124.155 348.282 124.132C348.717 124.196 349.16 124.144 349.568 123.98C349.976 123.817 350.332 123.548 350.602 123.202C351.005 122.688 351.242 122.064 351.282 121.412C351.276 121.041 351.229 120.672 351.142 120.312C351.038 119.932 350.834 119.587 350.552 119.312C351.053 118.405 351.851 117.698 352.812 117.312C353.744 116.93 354.745 116.747 355.752 116.772C356.926 116.682 358.09 117.039 359.012 117.772C359.721 118.462 360.202 119.351 360.392 120.322C360.628 121.429 360.742 122.559 360.732 123.692V127.032C358.794 127.034 356.861 127.231 354.962 127.622C353.083 127.993 351.258 128.601 349.532 129.432C347.981 130.166 346.614 131.239 345.532 132.572C344.51 133.857 343.969 135.46 344.002 137.102C343.978 138.034 344.15 138.96 344.506 139.822C344.863 140.683 345.396 141.46 346.072 142.102C347.439 143.435 349.486 144.102 352.212 144.102C353.793 144.099 355.354 143.758 356.792 143.102C358.335 142.392 359.735 141.406 360.922 140.192C361.002 140.682 361.052 141.192 361.092 141.602C361.132 142.012 361.182 142.602 361.262 143.192H370.262V140.192C369.652 140.192 369.012 140.192 368.332 140.252L366.392 140.382ZM360.792 137.212C359.898 138.058 358.888 138.772 357.792 139.332C356.699 139.86 355.496 140.124 354.282 140.102C353.291 140.124 352.323 139.803 351.542 139.192C351.136 138.842 350.811 138.408 350.592 137.918C350.372 137.429 350.263 136.898 350.272 136.362C350.242 135.287 350.569 134.232 351.202 133.362C351.858 132.516 352.7 131.832 353.662 131.362C354.742 130.809 355.893 130.409 357.082 130.172C358.304 129.908 359.544 129.737 360.792 129.662C360.792 130.755 360.792 131.755 360.792 132.662C360.792 133.568 360.792 134.198 360.792 134.552V135.922C360.732 136.372 360.752 136.802 360.792 137.212V137.212Z" />
<path d="M383.685 117.05L389.005 116.77C388.841 121.177 388.397 125.569 387.675 129.92C387.292 132.488 386.569 134.993 385.525 137.37C384.705 138.95 383.885 139.74 383.055 139.74C382.876 139.734 382.702 139.675 382.555 139.57C382.642 139.423 382.696 139.259 382.715 139.09C382.756 138.876 382.776 138.658 382.775 138.44C382.76 137.843 382.529 137.271 382.125 136.83C381.851 136.553 381.518 136.34 381.152 136.207C380.785 136.074 380.394 136.024 380.005 136.06C379.595 136.056 379.187 136.134 378.808 136.29C378.428 136.447 378.084 136.678 377.795 136.97C377.24 137.611 376.957 138.443 377.005 139.29C376.993 139.805 377.105 140.315 377.331 140.778C377.558 141.241 377.892 141.643 378.305 141.95C379.349 142.675 380.607 143.028 381.875 142.95C383.547 142.971 385.161 142.339 386.375 141.19C387.757 139.83 388.819 138.18 389.485 136.36C390.359 134.062 390.993 131.679 391.375 129.25C391.863 126.403 392.197 123.533 392.375 120.65C392.316 119.679 392.553 118.713 393.055 117.88C393.339 117.53 393.704 117.255 394.12 117.081C394.535 116.906 394.987 116.837 395.435 116.88H400.185C400.076 117.542 400.009 118.21 399.985 118.88C399.985 119.56 399.985 120.24 399.985 120.88V133.5C399.985 134.75 399.875 135.84 399.785 136.78C399.742 137.588 399.444 138.361 398.935 138.99C398.612 139.285 398.231 139.507 397.815 139.644C397.4 139.78 396.96 139.826 396.525 139.78V142.16H409.205V139.16L405.585 139.33C405.697 138.628 405.771 137.92 405.805 137.21C405.845 136.51 405.885 135.82 405.925 135.14V122.65C405.916 121.555 405.962 120.46 406.065 119.37C406.099 118.563 406.398 117.79 406.915 117.17C407.227 116.877 407.598 116.654 408.004 116.516C408.409 116.378 408.839 116.328 409.265 116.37V114H383.685V117.05Z" />
<path d="M420.39 121V135.54C420.492 136.699 420.226 137.861 419.63 138.86C419.295 139.214 418.885 139.487 418.429 139.66C417.974 139.834 417.485 139.902 417 139.86V142.24H432.56C434.177 142.244 435.776 141.903 437.25 141.24C438.727 140.617 439.977 139.555 440.828 138.197C441.68 136.838 442.093 135.251 442.01 133.65C442.025 132.163 441.641 130.699 440.9 129.41C440.008 128.002 438.66 126.942 437.08 126.41C434.64 125.598 432.067 125.258 429.5 125.41L426.28 125.52V121.22C426.274 120.428 426.321 119.636 426.42 118.85C426.483 118.148 426.782 117.489 427.27 116.98C427.601 116.703 427.983 116.495 428.395 116.368C428.808 116.241 429.241 116.197 429.67 116.24V114H417V117C417.53 117 418.1 116.93 418.72 116.91L420.56 116.83C420.49 117.51 420.44 118.2 420.42 118.92C420.4 119.64 420.39 120.34 420.39 121ZM426.25 138.07C426.25 137.53 426.31 136.91 426.31 136.23V128.23C426.91 128.19 427.55 128.16 428.23 128.14C428.91 128.14 429.63 128.14 430.38 128.14C431.148 128.1 431.915 128.212 432.64 128.469C433.364 128.727 434.03 129.125 434.6 129.64C435.138 130.207 435.553 130.879 435.82 131.614C436.086 132.348 436.199 133.13 436.15 133.91C436.218 134.689 436.108 135.474 435.829 136.205C435.55 136.936 435.11 137.594 434.54 138.13C433.409 139.038 431.99 139.51 430.54 139.46H429.35C428.82 139.46 428.27 139.46 427.68 139.46C427.09 139.46 426.58 139.46 426.13 139.4C426.14 139.08 426.18 138.62 426.25 138.07Z" />
<path d="M456.02 140.76C457.157 139.628 458.191 138.396 459.11 137.08C459.523 136.52 459.983 135.853 460.49 135.08C461 134.31 461.49 133.56 462.02 132.82C462.431 132.206 462.896 131.631 463.41 131.1L466.86 131.04V134.89C466.892 136.107 466.72 137.32 466.35 138.48C466.01 139.48 465.14 139.92 463.75 139.92V142.3H476.14V139.3L472.52 139.47C472.63 138.768 472.697 138.06 472.72 137.35C472.72 136.65 472.72 135.96 472.72 135.28V120.73C472.692 119.875 472.817 119.021 473.09 118.21C473.295 117.639 473.686 117.153 474.2 116.83C474.785 116.501 475.45 116.342 476.12 116.37V114H460.92C459.291 113.998 457.679 114.339 456.19 115C454.788 115.599 453.582 116.58 452.71 117.83C451.813 119.185 451.359 120.786 451.41 122.41C451.384 124.179 451.998 125.898 453.14 127.25C454.639 128.814 456.624 129.822 458.77 130.11C458.294 130.288 457.838 130.516 457.41 130.79C456.96 131.085 456.575 131.47 456.28 131.92L454.28 134.58L452.13 137.32C451.577 138.045 450.928 138.691 450.2 139.24C449.566 139.715 448.792 139.965 448 139.95V142.33H452.86C453.465 142.294 454.057 142.137 454.6 141.867C455.143 141.597 455.626 141.221 456.02 140.76V140.76ZM457.24 122.37C457.188 121.591 457.308 120.81 457.592 120.083C457.875 119.355 458.315 118.699 458.88 118.16C459.959 117.264 461.328 116.791 462.73 116.83C463.143 116.79 463.783 116.77 464.65 116.77C465.52 116.77 466.29 116.77 466.97 116.83C466.97 117.2 466.91 117.66 466.89 118.18C466.87 118.7 466.89 119.34 466.89 120.05V128.43L465.08 128.51C464.47 128.51 463.8 128.51 463.08 128.51C462.293 128.546 461.507 128.407 460.78 128.105C460.052 127.802 459.4 127.343 458.87 126.76C457.793 125.554 457.211 123.986 457.24 122.37V122.37Z" />
<path d="M235.494 173.97L239.904 173.8H241.204V181.6C241.204 185.615 240.92 189.625 240.354 193.6C239.945 196.426 239.275 199.208 238.354 201.91C237.805 203.621 237.014 205.244 236.004 206.73C235.204 207.79 234.514 208.28 233.904 208.28C233.719 208.285 233.534 208.253 233.362 208.184C233.19 208.115 233.034 208.012 232.904 207.88C233.098 207.677 233.248 207.437 233.346 207.173C233.444 206.91 233.487 206.63 233.474 206.35C233.459 205.614 233.186 204.906 232.704 204.35C232.412 204.028 232.047 203.781 231.64 203.629C231.233 203.478 230.795 203.427 230.364 203.48C229.889 203.465 229.416 203.556 228.98 203.746C228.544 203.937 228.156 204.221 227.844 204.58C227.261 205.298 226.962 206.206 227.004 207.13C226.981 207.755 227.123 208.376 227.416 208.929C227.709 209.482 228.143 209.948 228.674 210.28C229.864 211.049 231.257 211.443 232.674 211.41C234.23 211.407 235.731 210.834 236.894 209.8C238.307 208.513 239.417 206.928 240.144 205.16C241.145 202.847 241.906 200.438 242.414 197.97C243.055 194.927 243.516 191.848 243.794 188.75C244.114 185.37 244.294 181.757 244.334 177.91C244.333 176.862 244.594 175.831 245.094 174.91C245.418 174.539 245.828 174.254 246.289 174.08C246.749 173.906 247.245 173.847 247.734 173.91L254.574 173.8V201.75C254.591 202.904 254.518 204.058 254.354 205.2C254.253 205.977 253.869 206.69 253.274 207.2C252.468 207.734 251.52 208.013 250.554 208V210.49H264.554V207.37C263.954 207.41 263.287 207.44 262.554 207.46C261.804 207.46 261.104 207.52 260.464 207.6C260.547 206.953 260.594 206.302 260.604 205.65C260.604 204.84 260.604 203.92 260.604 202.9V179.63C260.582 178.465 260.659 177.301 260.834 176.15C260.936 175.376 261.316 174.665 261.904 174.15C262.684 173.615 263.618 173.348 264.564 173.39V170.9H235.494V173.97Z" />
<path d="M290.514 205.66C289.496 206.322 288.392 206.843 287.234 207.21C286.184 207.554 285.088 207.736 283.984 207.75C282.127 207.833 280.301 207.252 278.834 206.11C277.444 204.884 276.458 203.266 276.004 201.47C275.39 199.239 275.094 196.933 275.124 194.62L294.564 194.28C294.606 192.235 294.267 190.2 293.564 188.28C293.022 186.771 292.147 185.404 291.004 184.28C289.918 183.255 288.626 182.474 287.214 181.99C285.77 181.492 284.252 181.242 282.724 181.25C280.079 181.198 277.478 181.936 275.254 183.37C273.132 184.761 271.409 186.68 270.254 188.94C269.071 191.233 268.46 193.779 268.474 196.36C268.404 199.119 269.027 201.852 270.284 204.31C271.427 206.48 273.16 208.283 275.284 209.51C277.44 210.755 279.894 211.391 282.384 211.35C283.81 211.328 285.227 211.13 286.604 210.76C288.198 210.338 289.714 209.663 291.094 208.76C292.657 207.707 293.987 206.346 295.004 204.76L293.244 203.23C292.487 204.197 291.562 205.02 290.514 205.66V205.66ZM277.874 185.94C278.523 185.306 279.293 184.811 280.139 184.484C280.985 184.158 281.888 184.006 282.794 184.04C283.936 183.988 285.059 184.342 285.964 185.04C286.821 185.763 287.459 186.712 287.804 187.78C288.21 189.032 288.41 190.343 288.394 191.66H275.324C275.546 189.531 276.439 187.528 277.874 185.94V185.94Z" />
<path d="M318.213 195.53C319.977 195.156 321.563 194.197 322.713 192.81C323.615 191.622 324.1 190.171 324.093 188.68C324.168 187.717 323.982 186.752 323.554 185.886C323.127 185.02 322.473 184.285 321.663 183.76C319.627 182.57 317.289 182 314.933 182.12H309.243C307.333 182.12 305.543 182.12 303.863 182.12C302.183 182.12 300.693 182.12 299.373 182.12V184.9C299.863 184.9 300.433 184.83 301.093 184.81C301.753 184.79 302.373 184.81 302.933 184.73C302.863 185.18 302.803 185.73 302.763 186.26C302.723 186.79 302.713 187.44 302.713 188.12V203.68C302.81 204.833 302.552 205.988 301.973 206.99C301.639 207.355 301.226 207.64 300.765 207.822C300.304 208.004 299.807 208.078 299.313 208.04V210.42H315.723C317.435 210.433 319.133 210.114 320.723 209.48C322.161 208.919 323.421 207.983 324.373 206.77C325.3 205.498 325.775 203.953 325.723 202.38C325.745 201.52 325.592 200.666 325.272 199.868C324.952 199.07 324.473 198.346 323.863 197.74C322.287 196.381 320.294 195.602 318.213 195.53V195.53ZM308.653 188.17C308.653 186.66 308.993 185.7 309.653 185.29C310.513 184.831 311.48 184.613 312.453 184.66C313.427 184.653 314.398 184.767 315.343 185C316.168 185.177 316.908 185.628 317.443 186.28C318.007 187.089 318.278 188.066 318.213 189.05C318.217 189.971 318.044 190.884 317.703 191.74C317.345 192.606 316.722 193.337 315.923 193.83C314.825 194.448 313.584 194.769 312.323 194.76L308.653 194.82V188.17ZM317.903 206.36C316.591 207.282 315.005 207.733 313.403 207.64H312.133C311.503 207.64 310.853 207.64 310.133 207.64C309.413 207.64 308.873 207.64 308.383 207.59C308.47 207.13 308.527 206.666 308.553 206.2C308.553 205.65 308.613 205.04 308.613 204.36V197.36C309.213 197.36 309.933 197.3 310.763 197.28H313.253C314.774 197.254 316.27 197.656 317.573 198.44C318.225 198.87 318.746 199.47 319.081 200.175C319.416 200.88 319.552 201.663 319.473 202.44C319.54 203.171 319.432 203.907 319.159 204.588C318.886 205.269 318.456 205.876 317.903 206.36V206.36Z" />
<path d="M351.004 183.11C348.793 181.866 346.291 181.231 343.754 181.27C341.218 181.23 338.725 181.925 336.574 183.27C334.405 184.641 332.638 186.563 331.454 188.84C330.151 191.344 329.497 194.137 329.554 196.96C329.5 199.585 330.157 202.177 331.454 204.46C332.669 206.58 334.44 208.33 336.574 209.52C338.788 210.745 341.284 211.369 343.814 211.33C346.38 211.382 348.906 210.687 351.084 209.33C353.242 207.95 354.989 206.016 356.144 203.73C357.412 201.256 358.054 198.509 358.014 195.73C358.067 193.106 357.414 190.516 356.124 188.23C354.906 186.096 353.138 184.328 351.004 183.11ZM350.714 202.63C350.341 204.2 349.573 205.649 348.484 206.84C347.927 207.401 347.26 207.841 346.526 208.133C345.791 208.426 345.004 208.564 344.214 208.54C343.361 208.562 342.513 208.403 341.727 208.072C340.941 207.741 340.234 207.246 339.654 206.62C338.398 205.212 337.497 203.526 337.024 201.7C336.448 199.636 336.162 197.502 336.174 195.36C336.167 193.513 336.423 191.674 336.934 189.9C337.371 188.306 338.211 186.853 339.374 185.68C339.948 185.129 340.628 184.7 341.372 184.418C342.116 184.136 342.909 184.008 343.704 184.04C344.986 183.965 346.252 184.36 347.264 185.15C348.286 185.977 349.101 187.032 349.644 188.23C350.267 189.591 350.714 191.026 350.974 192.5C351.255 194.078 351.396 195.677 351.394 197.28C351.408 199.084 351.19 200.882 350.744 202.63H350.714Z" />
<path d="M377.844 185.17L381.014 185C380.901 185.695 380.834 186.396 380.814 187.1C380.814 187.81 380.814 188.51 380.814 189.19L380.754 195.64C379.987 195.872 379.2 196.032 378.404 196.12C377.644 196.214 376.879 196.26 376.114 196.26C374.114 196.26 372.604 195.71 371.704 194.59C370.71 193.202 370.229 191.513 370.344 189.81C370.344 187.74 370.564 186.34 371.024 185.63C371.297 185.251 371.666 184.951 372.093 184.762C372.52 184.572 372.99 184.499 373.454 184.55V182.17H361.004V185.17L364.564 185C364.494 185.68 364.434 186.44 364.394 187.27C364.354 188.1 364.344 189.02 364.344 190.04C364.411 193.207 365.267 195.65 366.914 197.37C368.561 199.09 371.061 199.947 374.414 199.94C375.418 199.932 376.42 199.859 377.414 199.72C378.508 199.573 379.594 199.362 380.664 199.09V201.81C380.664 203.05 380.664 204.15 380.524 205.09C380.479 205.892 380.193 206.662 379.704 207.3C379.388 207.595 379.011 207.819 378.6 207.956C378.19 208.092 377.754 208.138 377.324 208.09V210.47H390.004V207.47L386.434 207.64C386.514 206.92 386.574 206.21 386.604 205.51C386.634 204.81 386.664 204.13 386.664 203.45V190.83C386.664 189.59 386.764 188.49 386.864 187.55C386.904 186.747 387.19 185.975 387.684 185.34C387.991 185.049 388.357 184.828 388.758 184.692C389.158 184.555 389.583 184.507 390.004 184.55V182.17H377.844V185.17Z" />
<path d="M419.543 205.77C418.99 205.189 418.472 204.574 417.993 203.93C417.553 203.35 417.243 202.93 417.053 202.71L413.053 197.62C412.538 196.93 411.973 196.279 411.363 195.67C410.814 195.147 410.182 194.718 409.493 194.4L413.683 189.98C414.376 189.207 415.111 188.473 415.883 187.78C416.775 186.967 417.754 186.255 418.803 185.66C419.905 185.024 421.128 184.629 422.393 184.5V182.17H411.283V185.12L414.853 185C414.371 185.362 413.917 185.76 413.493 186.19L411.913 187.78L406.003 194.17H403.633V190.83C403.624 189.735 403.67 188.64 403.773 187.55C403.814 186.742 404.112 185.967 404.623 185.34C404.936 185.048 405.308 184.827 405.713 184.691C406.118 184.555 406.548 184.506 406.973 184.55V182.17H394.313V185.17L396.063 185.09C396.703 185.09 397.333 185.04 397.933 185C397.82 185.695 397.754 186.396 397.733 187.1C397.733 187.81 397.733 188.51 397.733 189.19V201.81C397.74 202.906 397.683 204.001 397.563 205.09C397.5 205.893 397.205 206.661 396.713 207.3C396.397 207.595 396.021 207.819 395.61 207.956C395.199 208.092 394.764 208.138 394.333 208.09V210.47H407.013V207.47L405.223 207.55C404.603 207.55 403.993 207.6 403.383 207.64C403.499 206.935 403.566 206.224 403.583 205.51C403.583 204.82 403.583 204.13 403.583 203.45L403.643 197L405.563 196.89C406.137 197.526 406.675 198.194 407.173 198.89C407.803 199.76 408.483 200.73 409.243 201.81C410.003 202.89 410.823 204.02 411.733 205.23C412.82 206.657 413.82 207.883 414.733 208.91C415.092 209.368 415.546 209.742 416.065 210.006C416.583 210.27 417.152 210.418 417.733 210.44H423.333V208.06C422.649 208.029 421.99 207.792 421.443 207.38C420.756 206.911 420.119 206.371 419.543 205.77V205.77Z" />
<path d="M445.124 185.17L446.844 185.09C447.474 185.09 448.084 185.04 448.684 185C448.634 185.44 448.614 185.89 448.574 186.34L435.674 201.13V190.83C435.674 189.59 435.774 188.49 435.874 187.55C435.914 186.746 436.2 185.975 436.694 185.34C437.009 185.045 437.383 184.823 437.792 184.686C438.201 184.55 438.635 184.503 439.064 184.55V182.17H426.394V185.17L428.144 185.09C428.794 185.09 429.414 185.04 430.014 185C429.9 185.694 429.834 186.396 429.814 187.1C429.814 187.81 429.814 188.51 429.814 189.19V201.81C429.82 202.905 429.763 204 429.644 205.09C429.58 205.893 429.285 206.661 428.794 207.3C428.477 207.595 428.101 207.819 427.69 207.955C427.279 208.092 426.844 208.137 426.414 208.09V210.47H439.004V207.47L437.274 207.55C436.654 207.55 436.044 207.6 435.434 207.64C435.504 206.98 435.554 206.34 435.594 205.7L448.454 190.78V201.78C448.46 202.875 448.403 203.97 448.284 205.06C448.22 205.863 447.925 206.631 447.434 207.27C447.117 207.565 446.741 207.789 446.33 207.925C445.919 208.062 445.484 208.107 445.054 208.06V210.44H457.734V207.44L455.974 207.52C455.307 207.52 454.687 207.55 454.114 207.61C454.184 206.89 454.244 206.18 454.274 205.48C454.304 204.78 454.334 204.1 454.334 203.42L454.394 190.8C454.384 189.705 454.43 188.61 454.534 187.52C454.574 186.711 454.872 185.937 455.384 185.31C455.696 185.018 456.068 184.797 456.473 184.661C456.878 184.524 457.308 184.476 457.734 184.52V182.14H445.124V185.17Z" />
<path d="M480.884 185.17L484.504 185C484.391 185.695 484.324 186.396 484.304 187.1C484.304 187.81 484.304 188.51 484.304 189.19V194.51H471.774V190.83C471.774 189.59 471.874 188.49 471.974 187.55C472.01 186.746 472.296 185.973 472.794 185.34C473.109 185.046 473.484 184.823 473.893 184.686C474.302 184.55 474.736 184.504 475.164 184.55V182.17H462.494V185.17L466.054 185C465.984 185.68 465.934 186.38 465.914 187.1C465.894 187.82 465.914 188.51 465.914 189.19V201.81C465.925 202.906 465.869 204.001 465.744 205.09C465.688 205.893 465.396 206.662 464.904 207.3C464.588 207.595 464.211 207.819 463.801 207.956C463.39 208.092 462.954 208.138 462.524 208.09V210.47H475.144V207.47L471.574 207.64C471.654 206.92 471.704 206.21 471.744 205.51C471.784 204.81 471.804 204.13 471.804 203.45V197.6L484.274 197.47V201.81C484.281 202.905 484.231 204 484.124 205.09C484.089 205.894 483.802 206.667 483.304 207.3C482.989 207.594 482.614 207.817 482.205 207.953C481.796 208.09 481.363 208.136 480.934 208.09V210.47H493.604V207.47L489.984 207.64C490.094 206.935 490.161 206.223 490.184 205.51C490.184 204.82 490.184 204.13 490.184 203.45V190.83C490.184 189.59 490.234 188.49 490.324 187.55C490.369 186.742 490.666 185.969 491.174 185.34C491.489 185.051 491.86 184.831 492.265 184.695C492.67 184.559 493.099 184.51 493.524 184.55V182.17H480.884V185.17Z" />
<path d="M522.244 207.52L520.244 207.64C520.314 206.84 520.374 206.09 520.414 205.37C520.454 204.65 520.464 204.02 520.464 203.45C520.464 202.05 520.464 200.716 520.464 199.45C520.464 198.2 520.464 196.96 520.464 195.71V191.81C520.464 188.15 519.664 185.483 518.064 183.81C516.464 182.136 514.067 181.293 510.874 181.28C508.894 181.252 506.923 181.556 505.044 182.18C503.497 182.669 502.091 183.523 500.944 184.67C499.983 185.633 499.443 186.939 499.444 188.3C499.427 189.081 499.673 189.845 500.144 190.47C500.385 190.784 500.7 191.034 501.061 191.198C501.422 191.362 501.818 191.434 502.214 191.41C502.649 191.471 503.093 191.416 503.5 191.251C503.907 191.086 504.264 190.816 504.534 190.47C504.932 189.957 505.169 189.337 505.214 188.69C505.208 188.319 505.161 187.95 505.074 187.59C504.974 187.191 504.767 186.828 504.474 186.54C504.986 185.653 505.782 184.966 506.734 184.59C507.666 184.199 508.673 184.014 509.684 184.05C510.855 183.956 512.018 184.313 512.934 185.05C513.647 185.737 514.132 186.627 514.324 187.6C514.554 188.708 514.668 189.837 514.664 190.97V194.28C512.722 194.286 510.785 194.487 508.884 194.88C507.003 195.246 505.178 195.855 503.454 196.69C501.9 197.42 500.532 198.494 499.454 199.83C498.432 201.115 497.89 202.717 497.924 204.36C497.902 205.29 498.074 206.215 498.429 207.076C498.783 207.937 499.313 208.714 499.984 209.36C501.364 210.693 503.41 211.36 506.124 211.36C507.707 211.357 509.272 211.016 510.714 210.36C512.255 209.648 513.655 208.662 514.844 207.45C514.914 207.94 514.974 208.45 515.014 208.86C515.054 209.27 515.104 209.86 515.184 210.45H524.184V207.45C523.564 207.47 522.924 207.49 522.244 207.52ZM514.664 204.47C513.765 205.31 512.756 206.024 511.664 206.59C510.569 207.115 509.367 207.375 508.154 207.35C507.164 207.372 506.197 207.055 505.414 206.45C505.005 206.101 504.679 205.667 504.458 205.178C504.236 204.688 504.126 204.156 504.134 203.62C504.102 202.543 504.433 201.486 505.074 200.62C505.732 199.776 506.573 199.092 507.534 198.62C508.616 198.075 509.766 197.678 510.954 197.44C512.176 197.175 513.416 197.005 514.664 196.93C514.664 198.02 514.664 199.03 514.664 199.93C514.664 200.83 514.664 201.49 514.664 201.83V203.22C514.604 203.63 514.624 204.05 514.664 204.47Z" />
</svg>
